#VRML V2.0 utf8
# 3D model generated by easyeda2kicad.py (https://github.com/uPesy/easyeda2kicad.py)

Shape{
    appearance Appearance {
        material  Material 	{
            diffuseColor 0.25098039215686274 0.25098039215686274 0.25098039215686274
            specularColor 0.12549019607843137 0.12549019607843137 0.12549019607843137
            ambientIntensity 0.251
            transparency 0.0
            shininess 0.5
        }
    }
    geometry IndexedFaceSet {
        ccw TRUE
        solid FALSE
        coord DEF co Coordinate {
            point [
                -0.569 -0.6186 0.2953, -0.569 0.0246 0.2953, -0.5738 0.0246 0.2953, -0.482 -0.8268 0.2953, -0.484 -0.827 0.2953, -0.4646 -0.827 0.2953, -0.5433 -0.6193 0.2953, -0.5371 -0.6186 0.2953, -0.5226 -0.6995 0.2953, -0.5277 -0.7 0.2953, -0.5012 -0.7 0.2953, -1.0163 -0.6676 0.2953, -1.0098 -0.6631 0.2953, -1.0098 -0.6186 0.2953, -0.7184 -0.6829 0.2953, -0.7034 -0.6963 0.2953, -0.6508 -0.6186 0.2953, -0.6508 -0.7 0.2953, -0.7961 -0.6103 0.2953, -0.7838 -0.6186 0.2953, -0.7707 -0.6273 0.2953, -0.7521 -0.6489 0.2953, -0.74 -0.6723 0.2953, -0.7352 -0.674 0.2953, -0.8247 -0.6002 0.2953, -0.6508 0.0246 0.2953, -0.8481 -0.5977 0.2953, -1.0098 0.0246 0.2953, -0.8764 -0.6012 0.2953, -0.9026 -0.6114 0.2953, -0.9982 -0.6549 0.2953, -0.9771 -0.6467 0.2953, -0.9546 -0.6439 0.2953, -0.9142 -0.6186 0.2953, -0.9165 -0.6199 0.2953, -0.9298 -0.6314 0.2953, -0.9481 -0.6442 0.2953, -0.9415 -0.645 0.2953, -1.1811 -0.7 0.2953, -1.0387 -0.7 0.2953, -1.1811 -0.6186 0.2953, -1.0338 -0.6889 0.2953, -1.0201 -0.6712 0.2953, -1.0098 -0.8093 0.2953, -1.0229 -0.7981 0.2953, -1.1811 -0.827 0.2953, -1.0358 -0.7797 0.2953, -1.044 -0.7586 0.2953, -1.1811 -0.7235 0.2953, -1.0468 -0.7361 0.2953, -1.0467 -0.7308 0.2953, -1.0454 -0.7235 0.2953, -1.0429 -0.7094 0.2953, -0.9847 -0.8233 0.2953, -1.0052 -0.8132 0.2953, -1.0098 -0.827 0.2953, -0.9774 -0.8255 0.2953, -0.9521 -0.8565 0.2953, -0.9632 -0.8481 0.2953, -1.0098 -0.8587 0.2953, -0.9717 -0.8376 0.2953, -0.9767 -0.827 0.2953, -0.9233 -0.8642 0.2953, -1.0098 -0.9843 0.2953, -0.9096 -0.8625 0.2953, -0.6508 -0.9843 0.2953, -0.8997 -0.8587 0.2953, -0.9255 -0.8641 0.2953, -0.939 -0.862 0.2953, -0.9468 -0.8587 0.2953, -0.8699 -0.827 0.2953, -0.87 -0.8271 0.2953, -0.6508 -0.8587 0.2953, -0.8767 -0.8398 0.2953, -0.8855 -0.8497 0.2953, -0.8969 -0.8576 0.2953, -0.8806 -0.7691 0.2953, -0.8043 -0.7293 0.2953, -0.8905 -0.7601 0.2953, -0.9026 -0.7536 0.2953, -0.7919 -0.8264 0.2953, -0.7957 -0.8252 0.2953, -0.7996 -0.8229 0.2953, -0.8024 -0.8203 0.2953, -0.7192 -0.7426 0.2953, -0.7218 -0.7316 0.2953, -0.7262 -0.7235 0.2953, -1.0096 -0.7235 0.2953, -0.8003 -0.7955 0.2953, -0.7968 -0.7932 0.2953, -0.7867 -0.7594 0.2953, -0.7928 -0.7917 0.2953, -0.6945 -0.7873 0.2953, -0.7047 -0.801 0.2953, -0.6508 -0.827 0.2953, -0.707 -0.8034 0.2953, -0.7221 -0.8153 0.2953, -0.9705 -0.775 0.2953, -1.0098 -0.7452 0.2953, -1.0063 -0.7575 0.2953, -0.9994 -0.7692 0.2953, -0.9892 -0.7797 0.2953, -0.9768 -0.7873 0.2953, -0.9494 -0.7562 0.2953, -0.9611 -0.7643 0.2953, -1.0098 -0.7257 0.2953, -0.6857 -0.7303 0.2953, -0.6836 -0.7469 0.2953, -0.6508 -0.7235 0.2953, -0.6837 -0.7509 0.2953, -0.6869 -0.7695 0.2953, -0.7397 -0.8233 0.2953, -0.7565 -0.8266 0.2953, -0.7901 -0.8266 0.2953, -0.8066 -0.809 0.2953, -0.8065 -0.8071 0.2953, -0.8664 -0.8016 0.2953, -0.8054 -0.8027 0.2953, -0.8033 -0.7988 0.2953, -0.9368 -0.7514 0.2953, -0.9233 -0.7497 0.2953, -0.9163 -0.7502 0.2953, -0.8048 -0.8166 0.2953, -0.8062 -0.8128 0.2953, -0.8667 -0.813 0.2953, -0.8664 -0.8072 0.2953, -0.7889 -0.7913 0.2953, -0.7884 -0.7913 0.2953, -0.7867 -0.7917 0.2953, -0.7305 -0.7776 0.2953, -0.7242 -0.7687 0.2953, -0.7203 -0.7585 0.2953, -0.7189 -0.7475 0.2953, -0.7855 -0.7919 0.2953, -0.7599 -0.7919 0.2953, -0.7498 -0.7899 0.2953, -0.7397 -0.7853 0.2953, -0.7313 -0.7785 0.2953, -1.011 -0.7349 0.2953, -1.0103 -0.7436 0.2953, -0.7684 -0.7 0.2953, -0.9985 -0.7 0.2953, -0.7679 -0.7031 0.2953, -1.0044 -0.7085 0.2953, -1.0093 -0.7212 0.2953, -0.7633 -0.7031 0.2953, -0.7271 -0.7218 0.2953, -0.7338 -0.7144 0.2953, -0.7426 -0.7082 0.2953, -0.7525 -0.7044 0.2953, -0.9281 -0.6843 0.2953, -0.9239 -0.6866 0.2953, -0.9166 -0.6708 0.2953, -0.7963 -0.6506 0.2953, -0.7693 -0.6946 0.2953, -0.7877 -0.6589 0.2953, -0.7763 -0.6755 0.2953, -0.8476 -0.6319 0.2953, -0.8514 -0.632 0.2953, -0.8703 -0.6351 0.2953, -0.9409 -0.6796 0.2953, -0.954 -0.678 0.2953, -0.9598 -0.6783 0.2953, -0.8126 -0.64 0.2953, -0.8306 -0.6337 0.2953, -0.8888 -0.6431 0.2953, -0.9043 -0.6552 0.2953, -0.9739 -0.6816 0.2953, -0.9866 -0.6883 0.2953, -0.9965 -0.6972 0.2953, -0.7009 -0.7 0.2953, -0.6922 -0.7128 0.2953, -0.6883 -0.7235 0.2953, -0.3163 -0.6774 0.2953, -0.3457 -0.6774 0.2953, -0.3081 -0.6993 0.2953, -0.3457 -0.7 0.2953, -0.2967 -0.6993 0.2953, 1.1811 -0.7 0.2953, 1.1811 -0.6186 0.2953, -0.3272 -0.6192 0.2953, -0.3457 -0.6186 0.2953, -0.3496 -0.6774 0.2953, -0.3573 -0.6993 0.2953, -0.371 -0.7 0.2953, -0.3688 -0.6993 0.2953, -0.371 -0.6186 0.2953, -0.3457 -0.6387 0.2953, -0.3383 -0.6192 0.2953, -0.4646 -0.6632 0.2953, -0.4862 -0.6632 0.2953, -0.4646 -0.6902 0.2953, -0.4862 -0.6902 0.2953, -0.4459 -0.6186 0.2953, -0.4646 -0.6186 0.2953, -0.4553 -0.6192 0.2953, -0.4646 -0.6192 0.2953, -0.4553 -0.6284 0.2953, -0.4535 -0.6902 0.2953, -0.4459 -0.7 0.2953, -0.4535 -0.6993 0.2953, -0.4646 -0.7 0.2953, -0.4576 -0.6632 0.2953, -0.4576 -0.6541 0.2953, -0.4646 -0.6541 0.2953, -0.4646 -0.6284 0.2953, -0.4862 -0.6284 0.2953, -0.4862 -0.6541 0.2953, -0.4966 -0.6192 0.2953, -0.5012 -0.6186 0.2953, -0.4966 -0.6993 0.2953, -0.5126 -0.6212 0.2953, -0.5209 -0.6187 0.2953, -0.5231 -0.6186 0.2953, -0.4646 -0.6993 0.2953, -0.5126 -0.632 0.2953, -0.514 -0.6967 0.2953, -0.5295 -0.6913 0.2953, -0.5204 -0.6896 0.2953, -0.5126 -0.6861 0.2953, -0.5126 -0.696 0.2953, -0.5577 -0.6776 0.2953, -0.5538 -0.683 0.2953, -0.5523 -0.6845 0.2953, -0.5471 -0.6882 0.2953, -0.5414 -0.6905 0.2953, -0.5333 -0.6914 0.2953, -0.5216 -0.6284 0.2953, -0.5543 -0.6372 0.2953, -0.5135 -0.6315 0.2953, -0.558 -0.6429 0.2953, -0.5606 -0.65 0.2953, -0.5315 -0.6272 0.2953, -0.5346 -0.6273 0.2953, -0.5533 -0.6361 0.2953, -0.5415 -0.6287 0.2953, -0.5478 -0.6316 0.2953, -0.5617 -0.6602 0.2953, -0.5616 -0.6631 0.2953, -0.5603 -0.6711 0.2953, -0.5316 -0.6179 0.2953, -0.5012 0.0246 0.2953, -0.5313 -0.6179 0.2953, -0.569 -0.6423 0.2953, -0.5668 -0.6373 0.2953, -0.561 -0.6297 0.2953, -0.5591 -0.6279 0.2953, -0.5516 -0.6226 0.2953, -0.5724 -0.6566 0.2953, -0.5706 -0.6462 0.2953, -0.5738 -0.6186 0.2953, -0.569 -0.6791 0.2953, -0.5712 -0.6727 0.2953, -0.5738 -0.7 0.2953, -0.5725 -0.6608 0.2953, -0.5558 -0.6951 0.2953, -0.5623 -0.6897 0.2953, -0.569 -0.7 0.2953, -0.5635 -0.6883 0.2953, -0.5681 -0.6813 0.2953, -0.5348 -0.7007 0.2953, -0.5396 -0.7004 0.2953, -0.569 -0.7235 0.2953, -0.5418 -0.7 0.2953, -0.5483 -0.6986 0.2953, -0.3754 -0.6727 0.2953, -0.3793 -0.681 0.2953, -0.4017 -0.6186 0.2953, -0.4017 -0.6212 0.2953, -0.3937 -0.6241 0.2953, -0.4017 -0.6972 0.2953, -0.4017 -0.7 0.2953, -0.3935 -0.694 0.2953, -0.3853 -0.6881 0.2953, -0.3853 -0.6298 0.2953, -0.3825 -0.6325 0.2953, -0.3776 -0.6395 0.2953, -0.3746 -0.6471 0.2953, -0.3732 -0.6582 0.2953, -0.3734 -0.6633 0.2953, -0.4155 -0.6192 0.2953, -0.4033 -0.6206 0.2953, -0.4026 -0.6976 0.2953, -0.4164 -0.6993 0.2953, -0.4384 -0.6993 0.2953, -0.4384 -0.6192 0.2953, -0.5613 -0.7991 0.2953, -0.5598 -0.7829 0.2953, -0.5633 -0.8019 0.2953, -0.5647 -0.8055 0.2953, -0.5536 -0.8269 0.2953, -0.5574 -0.8254 0.2953, -0.569 -0.827 0.2953, -0.5504 -0.7691 0.2953, -0.5578 -0.772 0.2953, -0.5598 -0.7731 0.2953, -0.5295 -0.8175 0.2953, -0.5297 -0.8175 0.2953, -0.5295 -0.8263 0.2953, -0.5321 -0.8208 0.2953, -0.5637 -0.8188 0.2953, -0.5649 -0.8154 0.2953, -0.5583 -0.7964 0.2953, -0.554 -0.7942 0.2953, -0.5528 -0.7785 0.2953, -0.5464 -0.7923 0.2953, -0.5465 -0.7765 0.2953, -0.5353 -0.824 0.2953, -0.5377 -0.8255 0.2953, -0.5417 -0.827 0.2953, -0.5605 -0.8232 0.2953, -0.5619 -0.8216 0.2953, -0.5295 -0.79 0.2953, -0.5297 -0.7861 0.2953, -0.5307 -0.7823 0.2953, -0.5401 -0.7678 0.2953, -0.5342 -0.7684 0.2953, -0.5299 -0.7696 0.2953, -0.5318 -0.7802 0.2953, -0.5333 -0.7785 0.2953, -0.535 -0.7773 0.2953, -0.5373 -0.7764 0.2953, -0.541 -0.776 0.2953, -0.5654 -0.811 0.2953, -0.5654 -0.8098 0.2953, -0.5042 -0.7778 0.2953, -0.5239 -0.7741 0.2953, -0.5054 -0.781 0.2953, -0.5218 -0.7773 0.2953, -0.5202 -0.7818 0.2953, -0.5012 -0.7235 0.2953, -0.5024 -0.7751 0.2953, -0.5266 -0.7715 0.2953, -0.5013 -0.7953 0.2953, -0.5058 -0.814 0.2953, -0.5012 -0.7954 0.2953, -0.5022 -0.8162 0.2953, -0.5012 -0.8166 0.2953, -0.5029 -0.7936 0.2953, -0.5042 -0.7916 0.2953, -0.5194 -0.7895 0.2953, -0.5053 -0.7886 0.2953, -0.5058 -0.7846 0.2953, -0.5417 -0.827 0.2953, -0.5012 -0.8587 0.2953, -0.569 -0.8587 0.2953, -0.5473 -0.8277 0.2953, -0.5489 -0.8276 0.2953, -0.5529 -0.827 0.2953, -0.5058 -0.8243 0.2953, -0.5194 -0.8263 0.2953, -0.5012 -0.8259 0.2953, -0.5012 -0.827 0.2953, -0.4988 -0.8268 0.2953, -0.4968 -0.827 0.2953, -0.4903 -0.8277 0.2953, -0.47 -0.7704 0.2953, -0.47 -0.7801 0.2953, -0.4677 -0.8147 0.2953, -0.4689 -0.8179 0.2953, -0.4707 -0.8205 0.2953, -0.5012 -0.774 0.2953, -0.4994 -0.7724 0.2953, -0.497 -0.7709 0.2953, -0.4706 -0.8013 0.2953, -0.4688 -0.8039 0.2953, -0.4677 -0.8069 0.2953, -0.4672 -0.8108 0.2953, -0.4916 -0.7688 0.2953, -0.4835 -0.7678 0.2953, -0.4646 -0.7235 0.2953, -0.4765 -0.7684 0.2953, -0.4737 -0.8231 0.2953, -0.4765 -0.8248 0.2953, -0.4845 -0.776 0.2953, -0.4875 -0.7762 0.2953, -0.4954 -0.7837 0.2953, -0.4901 -0.7769 0.2953, -0.4924 -0.7781 0.2953, -0.4954 -0.785 0.2953, -0.495 -0.7866 0.2953, -0.4942 -0.7879 0.2953, -0.4933 -0.789 0.2953, -0.4897 -0.7912 0.2953, -0.4775 -0.7768 0.2953, -0.4835 -0.7939 0.2953, -0.4718 -0.779 0.2953, -0.4796 -0.7955 0.2953, -0.473 -0.7992 0.2953, -0.4939 -0.7794 0.2953, -0.4948 -0.7807 0.2953, -0.4953 -0.7821 0.2953, -0.496 -0.8187 0.2953, -0.4906 -0.8012 0.2953, -0.4966 -0.7984 0.2953, -0.4893 -0.8195 0.2953, -0.4889 -0.8195 0.2953, -0.484 -0.8039 0.2953, -0.4838 -0.8189 0.2953, -0.4775 -0.8117 0.2953, -0.4776 -0.8105 0.2953, -0.4812 -0.818 0.2953, -0.4803 -0.8174 0.2953, -0.4791 -0.8164 0.2953, -0.4782 -0.8151 0.2953, -0.4777 -0.8137 0.2953, -0.4781 -0.8089 0.2953, -0.4788 -0.8076 0.2953, -0.4801 -0.8063 0.2953, -0.4175 -0.7691 0.2953, -0.4071 -0.7691 0.2953, -0.4017 -0.7235 0.2953, -0.4358 -0.8121 0.2953, -0.4346 -0.8168 0.2953, -0.4344 -0.8168 0.2953, -0.4459 -0.7235 0.2953, -0.4459 -0.7831 0.2953, -0.4331 -0.8122 0.2953, -0.4339 -0.8149 0.2953, -0.4459 -0.827 0.2953, -0.4459 -0.81 0.2953, -0.462 -0.7691 0.2953, -0.4508 -0.7691 0.2953, -0.4396 -0.8262 0.2953, -0.4399 -0.827 0.2953, -0.444 -0.8366 0.2953, -0.4646 -0.8587 0.2953, -0.4599 -0.8524 0.2953, -0.4599 -0.8435 0.2953, -0.4578 -0.8442 0.2953, -0.4542 -0.8447 0.2953, -0.4538 -0.8447 0.2953, -0.4514 -0.8443 0.2953, -0.4492 -0.8433 0.2953, -0.4479 -0.8424 0.2953, -0.4461 -0.8404 0.2953, -0.4459 -0.8402 0.2953, -0.4459 -0.8515 0.2953, -0.4495 -0.8528 0.2953, -0.4459 -0.8587 0.2953, -0.4535 -0.8533 0.2953, -0.457 -0.853 0.2953, -0.4331 -0.835 0.2953, -0.4375 -0.8436 0.2953, -0.4017 -0.8587 0.2953, -0.4299 -0.827 0.2953, -0.4411 -0.8481 0.2953, -0.442 -0.8489 0.2953, -0.4455 -0.8513 0.2953, -0.371 -0.7903 0.2953, -0.386 -0.7903 0.2953, -0.371 -0.8172 0.2953, -0.386 -0.8172 0.2953, -0.3551 -0.7463 0.2953, -0.3551 -0.7555 0.2953, -0.3457 -0.7235 0.2953, -0.3532 -0.8172 0.2953, -0.3457 -0.827 0.2953, -0.3532 -0.8263 0.2953, -0.371 -0.827 0.2953, -0.3573 -0.7903 0.2953, -0.3573 -0.7811 0.2953, -0.371 -0.7811 0.2953, -0.371 -0.7555 0.2953, -0.386 -0.7555 0.2953, -0.386 -0.7811 0.2953, -0.371 -0.8263 0.2953, -0.3963 -0.8263 0.2953, -0.4017 -0.827 0.2953, -0.3963 -0.7463 0.2953, -0.371 -0.7463 0.2953, -0.371 -0.7235 0.2953, -0.6508 0.9843 0.2953, -0.5738 0.9843 0.2953, -0.569 0.9843 0.2953, -0.5012 0.9843 0.2953, -0.4646 0.0246 0.2953, -0.4646 0.9843 0.2953, -0.4459 0.0246 0.2953, -0.4459 0.9843 0.2953, -0.4017 0.0246 0.2953, -0.4017 0.9843 0.2953, -0.371 0.0246 0.2953, -0.371 0.9843 0.2953, -0.3457 0.0246 0.2953, -0.3457 0.9843 0.2953, 1.1811 0.0246 0.2953, 1.1811 0.9843 0.2953, -0.8168 0.8412 0.2953, -0.7952 0.8247 0.2953, -0.8957 0.8516 0.2953, -0.8688 0.8551 0.2953, -1.0098 0.9843 0.2953, -0.7787 0.8031 0.2953, -0.7683 0.778 0.2953, -0.7647 0.7511 0.2953, -0.7683 0.7242 0.2953, -0.7787 0.6991 0.2953, -0.7952 0.6775 0.2953, -0.8957 0.6506 0.2953, -0.9208 0.661 0.2953, -0.9424 0.6775 0.2953, -0.9589 0.6991 0.2953, -0.8419 0.8516 0.2953, -0.8168 0.661 0.2953, -0.8419 0.6506 0.2953, -0.8688 0.647 0.2953, -0.9589 0.8031 0.2953, -0.9424 0.8247 0.2953, -0.9208 0.8412 0.2953, -0.9693 0.7242 0.2953, -0.9728 0.7511 0.2953, -0.9693 0.778 0.2953, -1.1811 0.9843 0.2953, -1.1811 0.0246 0.2953, -0.5758 -0.6902 0.2953, -0.5758 -0.6993 0.2953, -0.618 -0.6993 0.2953, -0.618 -0.6192 0.2953, -0.6077 -0.6192 0.2953, -0.6077 -0.6902 0.2953, -0.5738 -0.7235 0.2953, -0.2571 -0.8263 0.2953, -0.2685 -0.8263 0.2953, -0.2079 -0.8263 0.2953, -0.216 -0.8044 0.2953, -0.2494 -0.8044 0.2953, -0.1964 -0.8263 0.2953, 1.1811 -0.827 0.2953, -0.2269 -0.7463 0.2953, 1.1811 -0.7235 0.2953, -0.238 -0.7463 0.2953, -0.2751 -0.7997 0.2953, -0.2732 -0.7903 0.2953, -0.2729 -0.7853 0.2953, -0.2743 -0.7741 0.2953, -0.279 -0.808 0.2953, -0.285 -0.8151 0.2953, -0.2932 -0.821 0.2953, -0.3381 -0.7463 0.2953, -0.3381 -0.8263 0.2953, -0.3161 -0.8263 0.2953, -0.3023 -0.8246 0.2953, -0.285 -0.7569 0.2953, -0.2823 -0.7595 0.2953, -0.2773 -0.7665 0.2953, -0.3153 -0.7463 0.2953, -0.3031 -0.7476 0.2953, -0.2934 -0.7511 0.2953, -0.5738 -0.827 0.2953, -0.618 -0.8263 0.2953, -0.575 -0.8263 0.2953, -0.575 -0.8172 0.2953, -0.5768 -0.7555 0.2953, -0.618 -0.7463 0.2953, -0.5768 -0.7463 0.2953, -0.6077 -0.7903 0.2953, -0.6077 -0.8172 0.2953, -0.5791 -0.7903 0.2953, -0.5791 -0.7811 0.2953, -0.6077 -0.7811 0.2953, -0.6077 -0.7555 0.2953, -0.371 -0.8587 0.2953, -0.3457 -0.8587 0.2953, 1.1811 -0.8587 0.2953, -0.5738 -0.8587 0.2953, -0.5738 -0.9843 0.2953, -0.569 -0.9843 0.2953, -0.5012 -0.9843 0.2953, -0.4646 -0.9843 0.2953, -0.4459 -0.9843 0.2953, -0.4017 -0.9843 0.2953, -0.371 -0.9843 0.2953, -0.3457 -0.9843 0.2953, 1.1811 -0.9843 0.2953, -1.1811 -0.8587 0.2953, -1.1811 -0.9843 0.2953, 1.0032 0.8261 0.0079, 1.1811 0.9843 0.0079, 1.0236 0.8287 0.0079, 1.1811 0.8287 0.0079, 0.9843 -0.8182 0.0079, 1.0032 -0.8261 0.0079, 1.1811 -0.9843 0.0079, 1.0236 -0.8287 0.0079, 1.1811 -0.8287 0.0079, -0.9843 0.8182 0.0079, -1.0032 0.8261 0.0079, -1.1811 0.9843 0.0079, -1.0236 0.8287 0.0079, -1.1811 0.8287 0.0079, -0.9679 0.8057 0.0079, -0.6693 0.7283 0.0079, -0.5512 0.8465 0.0079, 0.6693 0.8465 0.0079, 0.9843 0.8182 0.0079, 0.9679 0.8057 0.0079, 0.9554 0.7894 0.0079, 0.9476 0.7704 0.0079, 0.9449 0.75 0.0079, 0.9476 0.7296 0.0079, 0.6693 -0.8465 0.0079, 0.9554 0.7106 0.0079, 0.9679 0.6943 0.0079, 0.9449 -0.75 0.0079, 0.9476 -0.7704 0.0079, -1.0032 -0.8261 0.0079, -1.1811 -0.9843 0.0079, -1.0236 -0.8287 0.0079, -1.1811 -0.8287 0.0079, -0.9843 -0.8182 0.0079, -0.9679 -0.8057 0.0079, -0.6693 -0.8465 0.0079, -0.9554 -0.7894 0.0079, -0.9476 -0.7704 0.0079, 0.9679 -0.3057 0.0079, 0.9843 -0.3182 0.0079, 0.9679 -0.6943 0.0079, 1.0032 -0.3261 0.0079, 0.9843 -0.6818 0.0079, 0.9476 -0.7296 0.0079, -0.9679 0.6943 0.0079, -0.9554 0.7106 0.0079, -0.9476 0.7296 0.0079, -0.9449 0.75 0.0079, 0.9679 0.3057 0.0079, 0.9843 0.3182 0.0079, 1.0032 0.3261 0.0079, 0.9679 0.1943 0.0079, 0.9554 0.2106 0.0079, 0.9476 0.2296 0.0079, 0.9843 0.1818 0.0079, 1.0032 -0.1739 0.0079, 0.9843 -0.1818 0.0079, 0.9679 -0.1943 0.0079, 0.9554 -0.7894 0.0079, 0.9679 -0.8057 0.0079, -0.9449 -0.75 0.0079, -0.9476 -0.7296 0.0079, -0.9554 -0.7106 0.0079, -0.9679 -0.6943 0.0079, -0.9679 -0.3057 0.0079, -0.9843 -0.3182 0.0079, -1.0032 -0.3261 0.0079, -0.9679 0.1943 0.0079, -0.9679 -0.1943 0.0079, -0.9843 0.1818 0.0079, -1.0032 0.1739 0.0079, -1.0032 0.3261 0.0079, -0.9843 0.6818 0.0079, -0.9843 0.3182 0.0079, -0.9679 0.3057 0.0079, -0.9476 0.7704 0.0079, -0.9554 0.7894 0.0079, 1.0236 0.1713 0.0079, 1.1811 0.1713 0.0079, 1.1811 -0.1713 0.0079, 0.9554 -0.2894 0.0079, 0.9476 -0.2704 0.0079, 0.9554 -0.7106 0.0079, -0.9554 -0.2106 0.0079, -0.9476 -0.2296 0.0079, 0.9554 0.2894 0.0079, 0.9476 0.2704 0.0079, 0.9449 0.25 0.0079, 1.0032 0.1739 0.0079, 1.0236 -0.1713 0.0079, 1.1811 -0.3287 0.0079, 1.1811 -0.6713 0.0079, 1.0236 -0.3287 0.0079, 1.0236 -0.6713 0.0079, 1.0032 -0.6739 0.0079, -0.9554 -0.2894 0.0079, -0.9476 -0.2704 0.0079, -0.9449 -0.25 0.0079, -1.1811 -0.1713 0.0079, -1.1811 0.1713 0.0079, -1.0236 -0.1713 0.0079, -1.0236 0.1713 0.0079, -1.0032 -0.1739 0.0079, -0.9843 -0.1818 0.0079, -0.9554 0.2106 0.0079, -0.9476 0.2296 0.0079, -0.9449 0.25 0.0079, -0.9476 0.2704 0.0079, -0.9554 0.2894 0.0079, 1.1811 0.6713 0.0079, 1.1811 0.3287 0.0079, 1.0236 0.6713 0.0079, 1.0236 0.3287 0.0079, 1.0032 0.6739 0.0079, 0.9843 0.6818 0.0079, 0.9554 -0.2106 0.0079, 0.9476 -0.2296 0.0079, 0.9449 -0.25 0.0079, -1.1811 -0.6713 0.0079, -1.1811 -0.3287 0.0079, -1.0236 -0.6713 0.0079, -1.0236 -0.3287 0.0079, -1.0032 -0.6739 0.0079, -0.9843 -0.6818 0.0079, -1.1811 0.3287 0.0079, -1.1811 0.6713 0.0079, -1.0236 0.3287 0.0079, -1.0236 0.6713 0.0079, -1.0032 0.6739 0.0079, -1.1811 0.8287 0.0787, -1.1811 0.6713 0.0787, -1.1811 0.1713 0.0787, -1.1811 -0.1713 0.0787, -1.1811 -0.3287 0.0787, -1.1811 0.3287 0.0787, -1.1811 -0.8287 0.0787, -1.1811 -0.6713 0.0787, 1.1811 0.3287 0.0787, 1.1811 0.8287 0.0787, 1.1811 0.6713 0.0787, 1.1811 -0.6713 0.0787, 1.1811 -0.3287 0.0787, 1.1811 -0.8287 0.0787, 1.1811 -0.1713 0.0787, 1.1811 0.1713 0.0787
            ]
        }
        coordIndex [
            0,1,2,-1,3,4,5,-1,6,7,0,-1,8,9,10,-1,11,12,13,-1,14,15,16,-1,16,15,17,-1,18,19,16,-1,16,19,20,-1,16,20,21,-1,21,22,16,-1,16,22,23,-1,16,23,14,-1,24,25,26,-1,26,25,27,-1,26,27,28,-1,28,27,29,-1,12,30,13,-1,13,30,31,-1,13,31,32,-1,29,27,33,-1,33,27,13,-1,33,13,34,-1,34,13,32,-1,34,32,35,-1,35,32,36,-1,35,36,37,-1,38,39,40,-1,40,39,41,-1,40,41,42,-1,43,44,45,-1,44,46,45,-1,45,46,47,-1,45,47,48,-1,48,47,49,-1,49,50,48,-1,48,50,51,-1,48,51,38,-1,38,51,52,-1,38,52,39,-1,53,54,55,-1,53,55,56,-1,57,58,59,-1,59,58,60,-1,59,60,55,-1,55,60,61,-1,55,61,56,-1,62,63,64,-1,64,63,65,-1,64,65,66,-1,62,67,63,-1,63,67,68,-1,63,68,59,-1,59,68,69,-1,59,69,57,-1,70,71,72,-1,72,71,73,-1,73,74,72,-1,72,74,75,-1,72,75,66,-1,76,77,78,-1,78,77,79,-1,80,81,70,-1,70,81,82,-1,70,82,83,-1,84,85,77,-1,77,85,86,-1,77,86,87,-1,88,89,90,-1,90,89,91,-1,92,93,94,-1,94,93,95,-1,94,95,96,-1,97,98,99,-1,99,100,97,-1,97,100,101,-1,97,101,102,-1,103,87,104,-1,104,87,105,-1,104,105,97,-1,106,107,108,-1,108,107,109,-1,108,109,94,-1,94,109,110,-1,94,110,92,-1,96,111,94,-1,94,111,112,-1,94,112,70,-1,70,112,113,-1,70,113,80,-1,114,115,116,-1,116,115,117,-1,116,117,90,-1,90,117,118,-1,90,118,88,-1,103,119,87,-1,87,119,120,-1,87,120,77,-1,77,120,121,-1,77,121,79,-1,83,122,70,-1,70,122,123,-1,70,123,124,-1,124,123,114,-1,124,114,125,-1,125,114,116,-1,91,126,90,-1,90,126,127,-1,90,127,128,-1,129,130,90,-1,90,130,131,-1,90,131,77,-1,77,131,132,-1,77,132,84,-1,128,133,90,-1,90,133,134,-1,90,134,135,-1,135,136,90,-1,90,136,137,-1,90,137,129,-1,97,105,98,-1,98,105,138,-1,98,138,139,-1,140,141,142,-1,142,141,143,-1,142,143,144,-1,144,87,142,-1,142,87,86,-1,142,86,145,-1,145,86,146,-1,146,147,145,-1,145,147,148,-1,145,148,149,-1,150,141,151,-1,151,141,140,-1,151,140,152,-1,153,154,155,-1,155,154,156,-1,154,157,140,-1,140,157,158,-1,140,158,159,-1,150,160,141,-1,141,160,161,-1,141,161,162,-1,153,163,154,-1,154,163,164,-1,154,164,157,-1,159,165,140,-1,140,165,166,-1,140,166,152,-1,167,168,162,-1,162,168,169,-1,162,169,141,-1,15,170,17,-1,17,170,171,-1,17,171,108,-1,108,171,172,-1,108,172,106,-1,173,174,175,-1,175,174,176,-1,175,176,177,-1,178,179,180,-1,180,179,181,-1,174,182,176,-1,176,182,183,-1,176,183,184,-1,184,183,185,-1,184,185,186,-1,186,185,187,-1,186,187,181,-1,181,187,188,-1,181,188,180,-1,189,190,191,-1,191,190,192,-1,193,194,195,-1,195,194,196,-1,195,197,193,-1,193,197,198,-1,193,198,199,-1,199,198,200,-1,199,200,201,-1,189,191,202,-1,202,191,198,-1,202,198,203,-1,203,198,197,-1,203,197,204,-1,197,205,204,-1,204,205,206,-1,204,206,207,-1,196,194,208,-1,208,194,209,-1,208,209,210,-1,211,209,212,-1,212,209,213,-1,200,214,201,-1,201,214,210,-1,201,210,10,-1,10,210,209,-1,10,209,215,-1,215,209,211,-1,8,10,216,-1,217,218,215,-1,215,218,219,-1,215,219,10,-1,10,219,220,-1,10,220,216,-1,221,222,215,-1,215,222,223,-1,215,223,224,-1,224,225,215,-1,215,225,226,-1,215,226,217,-1,227,228,229,-1,229,228,230,-1,229,230,231,-1,227,232,228,-1,228,232,233,-1,228,233,234,-1,234,233,235,-1,234,235,236,-1,231,237,229,-1,229,237,238,-1,229,238,215,-1,215,238,239,-1,215,239,221,-1,0,7,1,-1,1,7,240,-1,1,240,241,-1,241,240,242,-1,241,242,213,-1,243,244,0,-1,0,244,245,-1,245,246,0,-1,0,246,247,-1,0,247,6,-1,248,249,250,-1,251,252,253,-1,253,252,254,-1,248,250,254,-1,255,256,257,-1,257,256,258,-1,257,258,259,-1,260,261,262,-1,262,261,263,-1,262,263,257,-1,257,263,264,-1,257,264,255,-1,265,266,184,-1,267,268,186,-1,186,268,269,-1,270,271,272,-1,272,271,184,-1,272,184,273,-1,273,184,266,-1,269,274,186,-1,186,274,275,-1,186,275,276,-1,276,277,186,-1,186,277,278,-1,186,278,184,-1,184,278,279,-1,184,279,265,-1,193,280,267,-1,267,280,281,-1,267,281,268,-1,270,282,271,-1,271,282,283,-1,271,283,199,-1,199,283,284,-1,199,284,193,-1,193,284,285,-1,193,285,280,-1,286,287,288,-1,288,287,289,-1,290,291,292,-1,293,262,294,-1,294,262,295,-1,296,297,298,-1,298,297,299,-1,292,300,301,-1,286,302,287,-1,287,302,303,-1,287,303,304,-1,304,303,305,-1,304,305,306,-1,299,307,298,-1,298,307,308,-1,298,308,309,-1,291,310,292,-1,292,310,311,-1,292,311,300,-1,312,313,305,-1,305,313,314,-1,293,315,262,-1,262,315,316,-1,262,316,317,-1,314,318,305,-1,305,318,319,-1,305,319,320,-1,320,321,305,-1,305,321,322,-1,305,322,306,-1,301,323,292,-1,292,323,324,-1,292,324,262,-1,262,324,289,-1,262,289,295,-1,295,289,287,-1,325,326,327,-1,327,326,328,-1,327,328,329,-1,9,260,330,-1,330,260,262,-1,330,262,331,-1,331,262,317,-1,331,317,325,-1,325,317,332,-1,325,332,326,-1,333,334,335,-1,335,334,336,-1,335,336,337,-1,338,339,340,-1,340,339,341,-1,340,341,329,-1,329,341,342,-1,329,342,327,-1,309,343,344,-1,344,343,345,-1,343,346,345,-1,345,346,347,-1,345,347,348,-1,333,338,334,-1,334,338,340,-1,334,340,349,-1,349,340,350,-1,349,350,351,-1,351,350,352,-1,351,352,353,-1,353,352,354,-1,355,354,344,-1,344,354,352,-1,344,352,309,-1,309,352,350,-1,309,350,298,-1,356,357,5,-1,358,359,5,-1,5,359,360,-1,331,361,330,-1,330,361,362,-1,330,362,363,-1,364,365,357,-1,357,365,366,-1,357,366,5,-1,5,366,367,-1,5,367,358,-1,363,368,330,-1,330,368,369,-1,330,369,370,-1,370,369,371,-1,370,371,356,-1,360,372,5,-1,5,372,373,-1,5,373,3,-1,374,375,376,-1,376,375,377,-1,376,377,378,-1,376,379,374,-1,374,379,380,-1,374,380,381,-1,381,382,374,-1,374,382,383,-1,374,383,384,-1,384,383,385,-1,384,385,386,-1,386,385,387,-1,386,387,357,-1,357,387,388,-1,357,388,364,-1,389,390,378,-1,378,390,391,-1,378,391,376,-1,392,393,337,-1,337,393,394,-1,337,394,335,-1,392,395,393,-1,393,395,396,-1,393,396,397,-1,397,396,398,-1,397,399,400,-1,398,401,397,-1,397,401,402,-1,397,402,403,-1,403,404,397,-1,397,404,405,-1,397,405,399,-1,400,406,397,-1,397,406,407,-1,397,407,408,-1,409,410,411,-1,412,413,414,-1,411,415,409,-1,409,415,416,-1,409,416,417,-1,417,416,412,-1,417,412,418,-1,418,412,414,-1,419,420,5,-1,5,420,421,-1,356,5,370,-1,370,5,421,-1,370,421,415,-1,415,421,422,-1,415,422,416,-1,423,420,424,-1,424,420,419,-1,424,419,425,-1,426,427,428,-1,429,430,5,-1,355,344,4,-1,4,344,426,-1,4,426,5,-1,5,426,428,-1,5,428,429,-1,430,431,5,-1,5,431,432,-1,5,432,433,-1,433,434,5,-1,5,434,435,-1,5,435,419,-1,419,435,436,-1,419,436,425,-1,437,438,439,-1,439,438,440,-1,439,440,426,-1,426,440,441,-1,426,441,427,-1,442,443,444,-1,442,444,445,-1,443,446,444,-1,444,446,447,-1,444,447,439,-1,439,447,448,-1,439,448,437,-1,449,450,451,-1,451,450,452,-1,453,454,455,-1,455,454,456,-1,455,456,457,-1,457,456,458,-1,457,458,459,-1,449,451,460,-1,460,451,456,-1,460,456,461,-1,461,456,454,-1,461,454,462,-1,454,463,462,-1,462,463,464,-1,462,464,465,-1,458,466,459,-1,459,466,467,-1,459,467,468,-1,468,467,469,-1,453,455,470,-1,470,455,471,-1,470,471,469,-1,469,471,411,-1,469,411,468,-1,468,411,410,-1,468,410,445,-1,472,2,473,-1,473,2,1,-1,473,1,474,-1,474,1,241,-1,474,241,475,-1,475,241,476,-1,475,476,477,-1,477,476,478,-1,477,478,479,-1,479,478,480,-1,479,480,481,-1,481,480,482,-1,481,482,483,-1,483,482,484,-1,483,484,485,-1,485,484,486,-1,485,486,487,-1,488,489,472,-1,490,491,492,-1,489,493,472,-1,472,493,494,-1,472,494,495,-1,496,497,25,-1,25,497,498,-1,499,500,27,-1,27,500,501,-1,27,501,502,-1,492,491,472,-1,472,491,503,-1,472,503,488,-1,498,504,25,-1,25,504,505,-1,25,505,27,-1,27,505,506,-1,27,506,499,-1,507,508,492,-1,492,508,509,-1,492,509,490,-1,502,510,27,-1,27,510,511,-1,27,511,492,-1,492,511,512,-1,492,512,507,-1,213,209,241,-1,241,209,194,-1,241,194,476,-1,476,194,193,-1,476,193,478,-1,478,193,267,-1,478,267,480,-1,480,267,186,-1,480,186,482,-1,482,186,181,-1,482,181,484,-1,484,181,179,-1,484,179,486,-1,495,496,472,-1,472,496,25,-1,472,25,2,-1,2,25,250,-1,2,250,0,-1,0,250,249,-1,0,249,243,-1,492,513,27,-1,27,513,514,-1,27,514,13,-1,13,514,40,-1,13,40,11,-1,11,40,42,-1,254,250,253,-1,253,250,515,-1,253,515,516,-1,17,517,16,-1,16,517,518,-1,16,518,519,-1,520,515,519,-1,519,515,250,-1,519,250,16,-1,16,250,25,-1,16,25,18,-1,18,25,24,-1,9,330,10,-1,10,330,370,-1,10,370,201,-1,201,370,415,-1,201,415,199,-1,199,415,411,-1,199,411,271,-1,271,411,471,-1,271,471,184,-1,184,471,455,-1,184,455,176,-1,516,517,253,-1,253,517,17,-1,253,17,521,-1,521,17,108,-1,522,523,457,-1,524,525,526,-1,526,522,524,-1,524,522,457,-1,524,457,527,-1,527,457,528,-1,527,528,529,-1,529,528,530,-1,180,177,178,-1,178,177,176,-1,178,176,530,-1,530,176,455,-1,530,455,529,-1,529,455,531,-1,532,523,533,-1,533,523,531,-1,533,531,534,-1,534,531,535,-1,532,536,523,-1,523,536,537,-1,523,537,538,-1,539,455,540,-1,540,455,457,-1,540,457,541,-1,541,457,523,-1,541,523,542,-1,542,523,538,-1,543,544,531,-1,531,544,545,-1,531,545,535,-1,539,546,455,-1,455,546,547,-1,455,547,531,-1,531,547,548,-1,531,548,543,-1,259,251,257,-1,257,251,253,-1,257,253,262,-1,262,253,521,-1,262,521,292,-1,292,521,549,-1,94,549,550,-1,550,549,551,-1,551,549,552,-1,552,549,521,-1,552,521,553,-1,94,550,108,-1,108,550,554,-1,108,554,521,-1,521,554,555,-1,521,555,553,-1,556,557,558,-1,558,557,552,-1,558,552,559,-1,559,552,553,-1,559,553,560,-1,560,553,561,-1,445,444,468,-1,468,444,562,-1,468,562,459,-1,459,562,563,-1,459,563,457,-1,457,563,564,-1,457,564,528,-1,70,72,94,-1,94,72,565,-1,94,565,549,-1,549,565,345,-1,549,345,292,-1,292,345,348,-1,292,348,290,-1,66,65,72,-1,72,65,566,-1,72,566,565,-1,565,566,567,-1,565,567,345,-1,345,567,568,-1,345,568,344,-1,344,568,569,-1,344,569,426,-1,426,569,570,-1,426,570,439,-1,439,570,571,-1,439,571,444,-1,444,571,572,-1,444,572,562,-1,562,572,573,-1,562,573,563,-1,563,573,574,-1,563,574,564,-1,54,43,55,-1,55,43,45,-1,55,45,59,-1,59,45,575,-1,59,575,63,-1,63,575,576,-1,577,578,579,-1,579,578,580,-1,581,582,583,-1,583,582,584,-1,583,584,585,-1,586,587,588,-1,588,587,589,-1,588,589,590,-1,591,586,592,-1,592,586,588,-1,592,588,593,-1,593,588,578,-1,593,578,594,-1,594,578,577,-1,594,577,595,-1,595,596,594,-1,594,596,597,-1,594,597,598,-1,598,599,594,-1,594,599,600,-1,594,600,601,-1,601,600,602,-1,601,602,603,-1,604,605,601,-1,606,607,608,-1,608,607,609,-1,610,611,612,-1,612,611,613,-1,612,613,614,-1,615,616,617,-1,617,616,618,-1,617,618,619,-1,604,601,620,-1,581,583,601,-1,601,583,607,-1,601,607,612,-1,612,607,606,-1,612,606,610,-1,621,622,592,-1,592,622,623,-1,592,623,624,-1,625,603,626,-1,626,603,627,-1,628,601,629,-1,629,601,630,-1,631,632,628,-1,628,632,633,-1,628,633,634,-1,605,635,601,-1,601,635,636,-1,601,636,581,-1,614,637,612,-1,612,637,638,-1,612,638,592,-1,592,638,639,-1,592,639,640,-1,641,640,642,-1,642,640,643,-1,644,645,646,-1,646,645,647,-1,648,649,650,-1,650,649,651,-1,624,652,592,-1,592,652,653,-1,592,653,591,-1,654,655,656,-1,615,601,657,-1,657,601,658,-1,615,617,601,-1,601,617,659,-1,601,659,620,-1,645,592,660,-1,660,592,661,-1,625,662,603,-1,603,662,663,-1,603,663,601,-1,601,663,664,-1,601,664,630,-1,631,665,632,-1,632,665,654,-1,632,654,666,-1,666,654,656,-1,667,668,669,-1,669,668,670,-1,669,670,618,-1,618,670,671,-1,618,671,619,-1,641,672,640,-1,640,672,673,-1,640,673,592,-1,592,673,674,-1,592,674,661,-1,675,676,677,-1,677,676,678,-1,677,678,679,-1,679,678,647,-1,679,647,680,-1,680,647,645,-1,644,681,645,-1,645,681,682,-1,645,682,592,-1,592,682,683,-1,592,683,684,-1,649,621,651,-1,651,621,592,-1,651,592,685,-1,685,592,684,-1,686,687,688,-1,688,687,689,-1,688,689,690,-1,690,689,627,-1,690,627,691,-1,691,627,603,-1,634,692,628,-1,628,692,693,-1,628,693,601,-1,601,693,694,-1,601,694,658,-1,695,696,697,-1,697,696,698,-1,697,698,699,-1,699,698,643,-1,699,643,700,-1,700,643,640,-1,701,702,703,-1,703,702,704,-1,703,704,648,-1,648,704,705,-1,648,705,649,-1,513,588,590,-1,590,706,513,-1,513,706,707,-1,513,707,576,-1,708,676,675,-1,709,710,576,-1,675,709,708,-1,708,709,576,-1,708,576,711,-1,711,576,707,-1,711,707,701,-1,701,707,702,-1,609,607,712,-1,712,607,576,-1,712,576,713,-1,713,576,710,-1,713,710,695,-1,695,710,696,-1,574,583,585,-1,714,687,686,-1,580,578,715,-1,715,578,487,-1,715,487,716,-1,668,667,717,-1,717,667,718,-1,585,719,574,-1,574,719,717,-1,574,717,487,-1,487,717,718,-1,487,718,720,-1,686,716,714,-1,714,716,487,-1,714,487,721,-1,721,487,720,-1,721,720,655,-1,655,720,656,-1,513,487,588,-1,588,487,578,-1,574,576,583,-1,583,576,607,-1,
        ]
    }
}
Shape{
    appearance Appearance {
        material  Material 	{
            diffuseColor 0.7529411764705882 0.7529411764705882 0.7529411764705882
            specularColor 0.3764705882352941 0.3764705882352941 0.3764705882352941
            ambientIntensity 0.7529
            transparency 0.0
            shininess 0.5
        }
    }
    geometry IndexedFaceSet {
        ccw TRUE
        solid FALSE
        coord DEF co Coordinate {
            point [
                1.185 -0.3287 0.0787, 1.185 -0.1713 0.0787, 1.1811 -0.3287 0.0787, 1.1811 -0.1713 0.0787, 1.1811 -0.1713 0.0079, 1.185 -0.1713 0.0, 1.0236 -0.1713 0.0079, 1.0236 -0.1713 0.0, 1.0032 -0.1739 0.0, 1.0032 -0.1739 0.0079, 0.9843 -0.1818 0.0, 0.9843 -0.1818 0.0079, 0.9679 -0.1943 0.0, 0.9679 -0.1943 0.0079, 0.9554 -0.2106 0.0, 0.9554 -0.2106 0.0079, 0.9476 -0.2296 0.0, 0.9476 -0.2296 0.0079, 0.9449 -0.25 0.0, 0.9449 -0.25 0.0079, 0.9476 -0.2704 0.0, 0.9476 -0.2704 0.0079, 0.9554 -0.2894 0.0, 0.9554 -0.2894 0.0079, 0.9679 -0.3057 0.0, 0.9679 -0.3057 0.0079, 0.9843 -0.3182 0.0, 0.9843 -0.3182 0.0079, 1.0032 -0.3261 0.0, 1.0032 -0.3261 0.0079, 1.0236 -0.3287 0.0, 1.0236 -0.3287 0.0079, 1.1811 -0.3287 0.0079, 1.185 -0.3287 0.0, 1.185 -0.8287 0.0787, 1.185 -0.6713 0.0787, 1.1811 -0.8287 0.0787, 1.1811 -0.6713 0.0787, 1.1811 -0.6713 0.0079, 1.185 -0.6713 0.0, 1.0236 -0.6713 0.0079, 1.0236 -0.6713 0.0, 1.0032 -0.6739 0.0, 1.0032 -0.6739 0.0079, 0.9843 -0.6818 0.0, 0.9843 -0.6818 0.0079, 0.9679 -0.6943 0.0, 0.9679 -0.6943 0.0079, 0.9554 -0.7106 0.0, 0.9554 -0.7106 0.0079, 0.9476 -0.7296 0.0, 0.9476 -0.7296 0.0079, 0.9449 -0.75 0.0, 0.9449 -0.75 0.0079, 0.9476 -0.7704 0.0, 0.9476 -0.7704 0.0079, 0.9554 -0.7894 0.0, 0.9554 -0.7894 0.0079, 0.9679 -0.8057 0.0, 0.9679 -0.8057 0.0079, 0.9843 -0.8182 0.0, 0.9843 -0.8182 0.0079, 1.0032 -0.8261 0.0, 1.0032 -0.8261 0.0079, 1.0236 -0.8287 0.0, 1.0236 -0.8287 0.0079, 1.1811 -0.8287 0.0079, 1.185 -0.8287 0.0, 1.185 0.1713 0.0787, 1.185 0.3287 0.0787, 1.1811 0.1713 0.0787, 1.1811 0.3287 0.0787, 1.1811 0.3287 0.0079, 1.185 0.3287 0.0, 1.0236 0.3287 0.0079, 1.0236 0.3287 0.0, 1.0032 0.3261 0.0, 1.0032 0.3261 0.0079, 0.9843 0.3182 0.0, 0.9843 0.3182 0.0079, 0.9679 0.3057 0.0, 0.9679 0.3057 0.0079, 0.9554 0.2894 0.0, 0.9554 0.2894 0.0079, 0.9476 0.2704 0.0, 0.9476 0.2704 0.0079, 0.9449 0.25 0.0, 0.9449 0.25 0.0079, 0.9476 0.2296 0.0, 0.9476 0.2296 0.0079, 0.9554 0.2106 0.0, 0.9554 0.2106 0.0079, 0.9679 0.1943 0.0, 0.9679 0.1943 0.0079, 0.9843 0.1818 0.0, 0.9843 0.1818 0.0079, 1.0032 0.1739 0.0, 1.0032 0.1739 0.0079, 1.0236 0.1713 0.0, 1.0236 0.1713 0.0079, 1.1811 0.1713 0.0079, 1.185 0.1713 0.0, 1.185 0.6713 0.0787, 1.185 0.8287 0.0787, 1.1811 0.6713 0.0787, 1.1811 0.8287 0.0787, 1.1811 0.8287 0.0079, 1.185 0.8287 0.0, 1.0236 0.8287 0.0079, 1.0236 0.8287 0.0, 1.0032 0.8261 0.0, 1.0032 0.8261 0.0079, 0.9843 0.8182 0.0, 0.9843 0.8182 0.0079, 0.9679 0.8057 0.0, 0.9679 0.8057 0.0079, 0.9554 0.7894 0.0, 0.9554 0.7894 0.0079, 0.9476 0.7704 0.0, 0.9476 0.7704 0.0079, 0.9449 0.75 0.0, 0.9449 0.75 0.0079, 0.9476 0.7296 0.0, 0.9476 0.7296 0.0079, 0.9554 0.7106 0.0, 0.9554 0.7106 0.0079, 0.9679 0.6943 0.0, 0.9679 0.6943 0.0079, 0.9843 0.6818 0.0, 0.9843 0.6818 0.0079, 1.0032 0.6739 0.0, 1.0032 0.6739 0.0079, 1.0236 0.6713 0.0, 1.0236 0.6713 0.0079, 1.1811 0.6713 0.0079, 1.185 0.6713 0.0, -1.185 -0.1713 0.0787, -1.185 -0.3287 0.0787, -1.1811 -0.1713 0.0787, -1.1811 -0.3287 0.0787, -1.1811 -0.3287 0.0079, -1.185 -0.3287 0.0, -1.0236 -0.3287 0.0079, -1.0236 -0.3287 0.0, -1.0032 -0.3261 0.0, -1.0032 -0.3261 0.0079, -0.9843 -0.3182 0.0, -0.9843 -0.3182 0.0079, -0.9679 -0.3057 0.0, -0.9679 -0.3057 0.0079, -0.9554 -0.2894 0.0, -0.9554 -0.2894 0.0079, -0.9476 -0.2704 0.0, -0.9476 -0.2704 0.0079, -0.9449 -0.25 0.0, -0.9449 -0.25 0.0079, -0.9476 -0.2296 0.0, -0.9476 -0.2296 0.0079, -0.9554 -0.2106 0.0, -0.9554 -0.2106 0.0079, -0.9679 -0.1943 0.0, -0.9679 -0.1943 0.0079, -0.9843 -0.1818 0.0, -0.9843 -0.1818 0.0079, -1.0032 -0.1739 0.0, -1.0032 -0.1739 0.0079, -1.0236 -0.1713 0.0, -1.0236 -0.1713 0.0079, -1.1811 -0.1713 0.0079, -1.185 -0.1713 0.0, -1.185 -0.6713 0.0787, -1.185 -0.8287 0.0787, -1.1811 -0.6713 0.0787, -1.1811 -0.8287 0.0787, -1.1811 -0.8287 0.0079, -1.185 -0.8287 0.0, -1.0236 -0.8287 0.0079, -1.0236 -0.8287 0.0, -1.0032 -0.8261 0.0, -1.0032 -0.8261 0.0079, -0.9843 -0.8182 0.0, -0.9843 -0.8182 0.0079, -0.9679 -0.8057 0.0, -0.9679 -0.8057 0.0079, -0.9554 -0.7894 0.0, -0.9554 -0.7894 0.0079, -0.9476 -0.7704 0.0, -0.9476 -0.7704 0.0079, -0.9449 -0.75 0.0, -0.9449 -0.75 0.0079, -0.9476 -0.7296 0.0, -0.9476 -0.7296 0.0079, -0.9554 -0.7106 0.0, -0.9554 -0.7106 0.0079, -0.9679 -0.6943 0.0, -0.9679 -0.6943 0.0079, -0.9843 -0.6818 0.0, -0.9843 -0.6818 0.0079, -1.0032 -0.6739 0.0, -1.0032 -0.6739 0.0079, -1.0236 -0.6713 0.0, -1.0236 -0.6713 0.0079, -1.1811 -0.6713 0.0079, -1.185 -0.6713 0.0, -1.185 0.3287 0.0787, -1.185 0.1713 0.0787, -1.1811 0.3287 0.0787, -1.1811 0.1713 0.0787, -1.1811 0.1713 0.0079, -1.185 0.1713 0.0, -1.0236 0.1713 0.0079, -1.0236 0.1713 0.0, -1.0032 0.1739 0.0, -1.0032 0.1739 0.0079, -0.9843 0.1818 0.0, -0.9843 0.1818 0.0079, -0.9679 0.1943 0.0, -0.9679 0.1943 0.0079, -0.9554 0.2106 0.0, -0.9554 0.2106 0.0079, -0.9476 0.2296 0.0, -0.9476 0.2296 0.0079, -0.9449 0.25 0.0, -0.9449 0.25 0.0079, -0.9476 0.2704 0.0, -0.9476 0.2704 0.0079, -0.9554 0.2894 0.0, -0.9554 0.2894 0.0079, -0.9679 0.3057 0.0, -0.9679 0.3057 0.0079, -0.9843 0.3182 0.0, -0.9843 0.3182 0.0079, -1.0032 0.3261 0.0, -1.0032 0.3261 0.0079, -1.0236 0.3287 0.0, -1.0236 0.3287 0.0079, -1.1811 0.3287 0.0079, -1.185 0.3287 0.0, -1.185 0.8287 0.0787, -1.185 0.6713 0.0787, -1.1811 0.8287 0.0787, -1.1811 0.6713 0.0787, -1.1811 0.6713 0.0079, -1.185 0.6713 0.0, -1.0236 0.6713 0.0079, -1.0236 0.6713 0.0, -1.0032 0.6739 0.0, -1.0032 0.6739 0.0079, -0.9843 0.6818 0.0, -0.9843 0.6818 0.0079, -0.9679 0.6943 0.0, -0.9679 0.6943 0.0079, -0.9554 0.7106 0.0, -0.9554 0.7106 0.0079, -0.9476 0.7296 0.0, -0.9476 0.7296 0.0079, -0.9449 0.75 0.0, -0.9449 0.75 0.0079, -0.9476 0.7704 0.0, -0.9476 0.7704 0.0079, -0.9554 0.7894 0.0, -0.9554 0.7894 0.0079, -0.9679 0.8057 0.0, -0.9679 0.8057 0.0079, -0.9843 0.8182 0.0, -0.9843 0.8182 0.0079, -1.0032 0.8261 0.0, -1.0032 0.8261 0.0079, -1.0236 0.8287 0.0, -1.0236 0.8287 0.0079, -1.1811 0.8287 0.0079, -1.185 0.8287 0.0, -0.6693 0.7283 0.0, -0.6693 -0.8465 0.0, -0.6693 0.7283 0.0079, -0.6693 -0.8465 0.0079, -0.5512 0.8465 0.0, -0.5512 0.8465 0.0079, 0.6693 0.8465 0.0, 0.6693 0.8465 0.0079, 0.6693 -0.8465 0.0, 0.6693 -0.8465 0.0079
            ]
        }
        coordIndex [
            0,1,2,-1,2,1,3,-1,3,1,4,-1,4,1,5,-1,4,5,6,-1,6,5,7,-1,6,7,8,-1,6,8,9,-1,9,8,10,-1,9,10,11,-1,11,10,12,-1,11,12,13,-1,13,12,14,-1,13,14,15,-1,15,14,16,-1,15,16,17,-1,17,16,18,-1,17,18,19,-1,19,18,20,-1,19,20,21,-1,21,20,22,-1,21,22,23,-1,23,22,24,-1,23,24,25,-1,25,24,26,-1,25,26,27,-1,27,26,28,-1,27,28,29,-1,29,28,30,-1,29,30,31,-1,31,30,32,-1,32,30,33,-1,32,33,2,-1,2,33,0,-1,5,1,33,-1,33,1,0,-1,5,33,7,-1,7,33,30,-1,22,20,18,-1,10,26,12,-1,12,26,14,-1,30,28,7,-1,7,28,26,-1,7,26,8,-1,8,26,10,-1,26,24,14,-1,14,24,22,-1,14,22,16,-1,16,22,18,-1,34,35,36,-1,36,35,37,-1,37,35,38,-1,38,35,39,-1,38,39,40,-1,40,39,41,-1,40,41,42,-1,40,42,43,-1,43,42,44,-1,43,44,45,-1,45,44,46,-1,45,46,47,-1,47,46,48,-1,47,48,49,-1,49,48,50,-1,49,50,51,-1,51,50,52,-1,51,52,53,-1,53,52,54,-1,53,54,55,-1,55,54,56,-1,55,56,57,-1,57,56,58,-1,57,58,59,-1,59,58,60,-1,59,60,61,-1,61,60,62,-1,61,62,63,-1,63,62,64,-1,63,64,65,-1,65,64,66,-1,66,64,67,-1,66,67,36,-1,36,67,34,-1,39,35,67,-1,67,35,34,-1,42,41,56,-1,39,67,41,-1,41,67,64,-1,41,64,62,-1,62,60,41,-1,41,60,58,-1,41,58,56,-1,54,52,56,-1,56,52,50,-1,56,50,48,-1,48,46,56,-1,56,46,44,-1,56,44,42,-1,68,69,70,-1,70,69,71,-1,71,69,72,-1,72,69,73,-1,72,73,74,-1,74,73,75,-1,74,75,76,-1,74,76,77,-1,77,76,78,-1,77,78,79,-1,79,78,80,-1,79,80,81,-1,81,80,82,-1,81,82,83,-1,83,82,84,-1,83,84,85,-1,85,84,86,-1,85,86,87,-1,87,86,88,-1,87,88,89,-1,89,88,90,-1,89,90,91,-1,91,90,92,-1,91,92,93,-1,93,92,94,-1,93,94,95,-1,95,94,96,-1,95,96,97,-1,97,96,98,-1,97,98,99,-1,99,98,100,-1,100,98,101,-1,100,101,70,-1,70,101,68,-1,73,69,101,-1,101,69,68,-1,80,78,98,-1,90,88,86,-1,73,101,75,-1,75,101,98,-1,75,98,76,-1,76,98,78,-1,80,98,82,-1,82,98,96,-1,82,96,94,-1,94,92,82,-1,82,92,90,-1,82,90,84,-1,84,90,86,-1,102,103,104,-1,104,103,105,-1,105,103,106,-1,106,103,107,-1,106,107,108,-1,108,107,109,-1,108,109,110,-1,108,110,111,-1,111,110,112,-1,111,112,113,-1,113,112,114,-1,113,114,115,-1,115,114,116,-1,115,116,117,-1,117,116,118,-1,117,118,119,-1,119,118,120,-1,119,120,121,-1,121,120,122,-1,121,122,123,-1,123,122,124,-1,123,124,125,-1,125,124,126,-1,125,126,127,-1,127,126,128,-1,127,128,129,-1,129,128,130,-1,129,130,131,-1,131,130,132,-1,131,132,133,-1,133,132,134,-1,134,132,135,-1,134,135,104,-1,104,135,102,-1,107,103,135,-1,135,103,102,-1,130,128,116,-1,130,116,132,-1,132,116,114,-1,132,114,112,-1,107,135,109,-1,109,135,132,-1,109,132,110,-1,110,132,112,-1,124,122,120,-1,128,126,116,-1,116,126,124,-1,116,124,118,-1,118,124,120,-1,136,137,138,-1,138,137,139,-1,139,137,140,-1,140,137,141,-1,140,141,142,-1,142,141,143,-1,142,143,144,-1,142,144,145,-1,145,144,146,-1,145,146,147,-1,147,146,148,-1,147,148,149,-1,149,148,150,-1,149,150,151,-1,151,150,152,-1,151,152,153,-1,153,152,154,-1,153,154,155,-1,155,154,156,-1,155,156,157,-1,157,156,158,-1,157,158,159,-1,159,158,160,-1,159,160,161,-1,161,160,162,-1,161,162,163,-1,163,162,164,-1,163,164,165,-1,165,164,166,-1,165,166,167,-1,167,166,168,-1,168,166,169,-1,168,169,138,-1,138,169,136,-1,141,137,169,-1,169,137,136,-1,164,162,150,-1,164,150,166,-1,166,150,148,-1,166,148,146,-1,141,169,143,-1,143,169,166,-1,143,166,144,-1,144,166,146,-1,158,156,154,-1,162,160,150,-1,150,160,158,-1,150,158,152,-1,152,158,154,-1,170,171,172,-1,172,171,173,-1,173,171,174,-1,174,171,175,-1,174,175,176,-1,176,175,177,-1,176,177,178,-1,176,178,179,-1,179,178,180,-1,179,180,181,-1,181,180,182,-1,181,182,183,-1,183,182,184,-1,183,184,185,-1,185,184,186,-1,185,186,187,-1,187,186,188,-1,187,188,189,-1,189,188,190,-1,189,190,191,-1,191,190,192,-1,191,192,193,-1,193,192,194,-1,193,194,195,-1,195,194,196,-1,195,196,197,-1,197,196,198,-1,197,198,199,-1,199,198,200,-1,199,200,201,-1,201,200,202,-1,202,200,203,-1,202,203,172,-1,172,203,170,-1,175,171,203,-1,203,171,170,-1,175,203,177,-1,177,203,200,-1,177,200,178,-1,178,200,198,-1,198,196,178,-1,178,196,194,-1,178,194,192,-1,190,188,192,-1,192,188,186,-1,192,186,184,-1,184,182,192,-1,192,182,180,-1,192,180,178,-1,204,205,206,-1,206,205,207,-1,207,205,208,-1,208,205,209,-1,208,209,210,-1,210,209,211,-1,210,211,212,-1,210,212,213,-1,213,212,214,-1,213,214,215,-1,215,214,216,-1,215,216,217,-1,217,216,218,-1,217,218,219,-1,219,218,220,-1,219,220,221,-1,221,220,222,-1,221,222,223,-1,223,222,224,-1,223,224,225,-1,225,224,226,-1,225,226,227,-1,227,226,228,-1,227,228,229,-1,229,228,230,-1,229,230,231,-1,231,230,232,-1,231,232,233,-1,233,232,234,-1,233,234,235,-1,235,234,236,-1,236,234,237,-1,236,237,206,-1,206,237,204,-1,209,205,237,-1,237,205,204,-1,209,237,211,-1,211,237,234,-1,226,224,222,-1,214,230,216,-1,216,230,218,-1,234,232,211,-1,211,232,230,-1,211,230,212,-1,212,230,214,-1,230,228,218,-1,218,228,226,-1,218,226,220,-1,220,226,222,-1,238,239,240,-1,240,239,241,-1,241,239,242,-1,242,239,243,-1,242,243,244,-1,244,243,245,-1,244,245,246,-1,244,246,247,-1,247,246,248,-1,247,248,249,-1,249,248,250,-1,249,250,251,-1,251,250,252,-1,251,252,253,-1,253,252,254,-1,253,254,255,-1,255,254,256,-1,255,256,257,-1,257,256,258,-1,257,258,259,-1,259,258,260,-1,259,260,261,-1,261,260,262,-1,261,262,263,-1,263,262,264,-1,263,264,265,-1,265,264,266,-1,265,266,267,-1,267,266,268,-1,267,268,269,-1,269,268,270,-1,270,268,271,-1,270,271,240,-1,240,271,238,-1,243,239,271,-1,271,239,238,-1,243,271,245,-1,245,271,268,-1,268,266,245,-1,245,266,264,-1,245,264,246,-1,258,256,254,-1,262,250,264,-1,264,250,248,-1,264,248,246,-1,262,260,250,-1,250,260,258,-1,250,258,252,-1,252,258,254,-1,272,273,274,-1,274,273,275,-1,276,272,277,-1,277,272,274,-1,278,276,279,-1,279,276,277,-1,280,278,281,-1,281,278,279,-1,273,280,275,-1,275,280,281,-1,276,278,272,-1,272,278,280,-1,272,280,273,-1,
        ]
    }
}
Shape{
    appearance Appearance {
        material  Material 	{
            diffuseColor 0.5019607843137255 0.5019607843137255 0.5019607843137255
            specularColor 0.25098039215686274 0.25098039215686274 0.25098039215686274
            ambientIntensity 0.502
            transparency 0.0
            shininess 0.5
        }
    }
    geometry IndexedFaceSet {
        ccw TRUE
        solid FALSE
        coord DEF co Coordinate {
            point [
                -0.7647 0.7511 0.2913, -0.7647 0.7511 0.2953, -0.7683 0.778 0.2913, -0.7683 0.778 0.2953, -0.7787 0.8031 0.2913, -0.7787 0.8031 0.2953, -0.7952 0.8247 0.2913, -0.7952 0.8247 0.2953, -0.8168 0.8412 0.2913, -0.8168 0.8412 0.2953, -0.8419 0.8516 0.2913, -0.8419 0.8516 0.2953, -0.8688 0.8551 0.2913, -0.8688 0.8551 0.2953, -0.8957 0.8516 0.2913, -0.8957 0.8516 0.2953, -0.9208 0.8412 0.2913, -0.9208 0.8412 0.2953, -0.9424 0.8247 0.2913, -0.9424 0.8247 0.2953, -0.9589 0.8031 0.2913, -0.9589 0.8031 0.2953, -0.9693 0.778 0.2913, -0.9693 0.778 0.2953, -0.9728 0.7511 0.2913, -0.9728 0.7511 0.2953, -0.9693 0.7242 0.2913, -0.9693 0.7242 0.2953, -0.9589 0.6991 0.2913, -0.9589 0.6991 0.2953, -0.9424 0.6775 0.2913, -0.9424 0.6775 0.2953, -0.9208 0.661 0.2913, -0.9208 0.661 0.2953, -0.8957 0.6506 0.2913, -0.8957 0.6506 0.2953, -0.8688 0.647 0.2913, -0.8688 0.647 0.2953, -0.8419 0.6506 0.2913, -0.8419 0.6506 0.2953, -0.8168 0.661 0.2913, -0.8168 0.661 0.2953, -0.7952 0.6775 0.2913, -0.7952 0.6775 0.2953, -0.7787 0.6991 0.2913, -0.7787 0.6991 0.2953, -0.7683 0.7242 0.2913, -0.7683 0.7242 0.2953, -0.8688 0.7511 0.2913
            ]
        }
        coordIndex [
            0,1,2,-1,2,1,3,-1,2,3,4,-1,4,3,5,-1,4,5,6,-1,6,5,7,-1,6,7,8,-1,8,7,9,-1,8,9,10,-1,10,9,11,-1,10,11,12,-1,12,11,13,-1,12,13,14,-1,14,13,15,-1,14,15,16,-1,16,15,17,-1,16,17,18,-1,18,17,19,-1,18,19,20,-1,20,19,21,-1,20,21,22,-1,22,21,23,-1,22,23,24,-1,24,23,25,-1,24,25,26,-1,26,25,27,-1,26,27,28,-1,28,27,29,-1,28,29,30,-1,30,29,31,-1,30,31,32,-1,32,31,33,-1,32,33,34,-1,34,33,35,-1,34,35,36,-1,36,35,37,-1,36,37,38,-1,38,37,39,-1,38,39,40,-1,40,39,41,-1,40,41,42,-1,42,41,43,-1,42,43,44,-1,44,43,45,-1,44,45,46,-1,46,45,47,-1,46,47,0,-1,0,47,1,-1,44,46,48,-1,48,46,0,-1,48,0,2,-1,38,40,48,-1,48,40,42,-1,48,42,44,-1,32,34,48,-1,48,34,36,-1,48,36,38,-1,26,28,48,-1,48,28,30,-1,48,30,32,-1,20,22,48,-1,48,22,24,-1,48,24,26,-1,14,16,48,-1,48,16,18,-1,48,18,20,-1,8,10,48,-1,48,10,12,-1,48,12,14,-1,2,4,48,-1,48,4,6,-1,48,6,8,-1,
        ]
    }
}
Shape{
    appearance Appearance {
        material  Material 	{
            diffuseColor 1.0 1.0 1.0
            specularColor 0.5019607843137255 0.5019607843137255 0.5019607843137255
            ambientIntensity 1.0
            transparency 0.0
            shininess 0.5
        }
    }
    geometry IndexedFaceSet {
        ccw TRUE
        solid FALSE
        coord DEF co Coordinate {
            point [
                -0.5758 -0.6902 0.2992, -0.5758 -0.6993 0.2992, -0.5758 -0.6902 0.2953, -0.5758 -0.6993 0.2953, -0.6077 -0.6902 0.2992, -0.6077 -0.6902 0.2953, -0.6077 -0.6192 0.2992, -0.6077 -0.6192 0.2953, -0.618 -0.6192 0.2992, -0.618 -0.6192 0.2953, -0.618 -0.6993 0.2992, -0.618 -0.6993 0.2953, -0.5348 -0.7007 0.2992, -0.5348 -0.7007 0.2953, -0.5226 -0.6995 0.2992, -0.5277 -0.7 0.2953, -0.5226 -0.6995 0.2953, -0.514 -0.6967 0.2953, -0.514 -0.6967 0.2992, -0.5126 -0.696 0.2953, -0.5126 -0.696 0.2992, -0.5126 -0.6861 0.2992, -0.5126 -0.6861 0.2953, -0.5204 -0.6896 0.2953, -0.5204 -0.6896 0.2992, -0.5295 -0.6913 0.2953, -0.5295 -0.6913 0.2992, -0.5333 -0.6914 0.2953, -0.5333 -0.6914 0.2992, -0.5414 -0.6905 0.2953, -0.5414 -0.6905 0.2992, -0.5471 -0.6882 0.2953, -0.5471 -0.6882 0.2992, -0.5523 -0.6845 0.2953, -0.5523 -0.6845 0.2992, -0.5538 -0.683 0.2953, -0.5538 -0.683 0.2992, -0.5577 -0.6776 0.2953, -0.5577 -0.6776 0.2992, -0.5603 -0.6711 0.2953, -0.5603 -0.6711 0.2992, -0.5616 -0.6631 0.2953, -0.5616 -0.6631 0.2992, -0.5617 -0.6602 0.2953, -0.5617 -0.6602 0.2992, -0.5606 -0.65 0.2953, -0.5606 -0.65 0.2992, -0.558 -0.6429 0.2953, -0.558 -0.6429 0.2992, -0.5543 -0.6372 0.2953, -0.5543 -0.6372 0.2992, -0.5533 -0.6361 0.2953, -0.5533 -0.6361 0.2992, -0.5478 -0.6316 0.2953, -0.5478 -0.6316 0.2992, -0.5415 -0.6287 0.2953, -0.5415 -0.6287 0.2992, -0.5346 -0.6273 0.2953, -0.5346 -0.6273 0.2992, -0.5315 -0.6272 0.2953, -0.5315 -0.6272 0.2992, -0.5216 -0.6284 0.2953, -0.5216 -0.6284 0.2992, -0.5135 -0.6315 0.2953, -0.5135 -0.6315 0.2992, -0.5126 -0.632 0.2953, -0.5126 -0.632 0.2992, -0.5126 -0.6212 0.2992, -0.5126 -0.6212 0.2953, -0.5316 -0.6179 0.2953, -0.5316 -0.6179 0.2992, -0.5313 -0.6179 0.2992, -0.5209 -0.6187 0.2953, -0.5209 -0.6187 0.2992, -0.5231 -0.6186 0.2953, -0.5313 -0.6179 0.2953, -0.5371 -0.6186 0.2953, -0.5433 -0.6193 0.2992, -0.5433 -0.6193 0.2953, -0.5516 -0.6226 0.2953, -0.5516 -0.6226 0.2992, -0.5591 -0.6279 0.2953, -0.5591 -0.6279 0.2992, -0.561 -0.6297 0.2953, -0.561 -0.6297 0.2992, -0.5668 -0.6373 0.2953, -0.569 -0.6423 0.2953, -0.5706 -0.6462 0.2992, -0.5668 -0.6373 0.2992, -0.5706 -0.6462 0.2953, -0.5724 -0.6566 0.2953, -0.5724 -0.6566 0.2992, -0.5725 -0.6608 0.2953, -0.5725 -0.6608 0.2992, -0.5712 -0.6727 0.2953, -0.569 -0.6791 0.2953, -0.5681 -0.6813 0.2992, -0.5712 -0.6727 0.2992, -0.5681 -0.6813 0.2953, -0.5635 -0.6883 0.2953, -0.5635 -0.6883 0.2992, -0.5623 -0.6897 0.2953, -0.5623 -0.6897 0.2992, -0.5396 -0.7004 0.2992, -0.5558 -0.6951 0.2953, -0.5558 -0.6951 0.2992, -0.5483 -0.6986 0.2953, -0.5483 -0.6986 0.2992, -0.5418 -0.7 0.2953, -0.5396 -0.7004 0.2953, -0.4535 -0.6902 0.2992, -0.4535 -0.6993 0.2992, -0.4535 -0.6902 0.2953, -0.4535 -0.6993 0.2953, -0.4862 -0.6902 0.2953, -0.4862 -0.6902 0.2992, -0.4646 -0.6902 0.2953, -0.4862 -0.6632 0.2992, -0.4862 -0.6632 0.2953, -0.4576 -0.6632 0.2992, -0.4646 -0.6632 0.2953, -0.4576 -0.6632 0.2953, -0.4576 -0.6541 0.2992, -0.4576 -0.6541 0.2953, -0.4862 -0.6541 0.2953, -0.4862 -0.6541 0.2992, -0.4646 -0.6541 0.2953, -0.4862 -0.6284 0.2992, -0.4862 -0.6284 0.2953, -0.4553 -0.6284 0.2992, -0.4646 -0.6284 0.2953, -0.4553 -0.6284 0.2953, -0.4553 -0.6192 0.2992, -0.4553 -0.6192 0.2953, -0.4966 -0.6192 0.2953, -0.4966 -0.6192 0.2992, -0.4646 -0.6192 0.2953, -0.4966 -0.6993 0.2992, -0.4966 -0.6993 0.2953, -0.4646 -0.6993 0.2953, -0.3886 -0.6769 0.2992, -0.3926 -0.6818 0.2992, -0.3853 -0.6881 0.2992, -0.3941 -0.6832 0.2992, -0.3935 -0.694 0.2992, -0.3994 -0.6866 0.2992, -0.4026 -0.6976 0.2992, -0.4062 -0.6891 0.2992, -0.4164 -0.6993 0.2992, -0.4164 -0.6902 0.2992, -0.4384 -0.6993 0.2992, -0.428 -0.6902 0.2992, -0.4384 -0.6192 0.2992, -0.428 -0.6284 0.2992, -0.4155 -0.6192 0.2992, -0.416 -0.6284 0.2992, -0.4033 -0.6206 0.2992, -0.4056 -0.6296 0.2992, -0.3937 -0.6241 0.2992, -0.3987 -0.6321 0.2992, -0.3853 -0.6298 0.2992, -0.3928 -0.636 0.2992, -0.3825 -0.6325 0.2992, -0.3902 -0.6386 0.2992, -0.3776 -0.6395 0.2992, -0.3872 -0.6432 0.2992, -0.3746 -0.6471 0.2992, -0.385 -0.6493 0.2992, -0.3732 -0.6582 0.2992, -0.3841 -0.6585 0.2992, -0.3734 -0.6633 0.2992, -0.3843 -0.6636 0.2992, -0.3754 -0.6727 0.2992, -0.3859 -0.6709 0.2992, -0.3793 -0.681 0.2992, -0.4164 -0.6993 0.2953, -0.4384 -0.6993 0.2953, -0.3853 -0.6881 0.2953, -0.4026 -0.6976 0.2953, -0.4017 -0.6972 0.2953, -0.3935 -0.694 0.2953, -0.3793 -0.681 0.2953, -0.3754 -0.6727 0.2953, -0.3734 -0.6633 0.2953, -0.3732 -0.6582 0.2953, -0.3746 -0.6471 0.2953, -0.3776 -0.6395 0.2953, -0.3825 -0.6325 0.2953, -0.3853 -0.6298 0.2953, -0.4155 -0.6192 0.2953, -0.3937 -0.6241 0.2953, -0.4017 -0.6212 0.2953, -0.4033 -0.6206 0.2953, -0.4384 -0.6192 0.2953, -0.416 -0.6284 0.2953, -0.428 -0.6284 0.2953, -0.428 -0.6902 0.2953, -0.4164 -0.6902 0.2953, -0.3926 -0.6818 0.2953, -0.3941 -0.6832 0.2953, -0.3994 -0.6866 0.2953, -0.4062 -0.6891 0.2953, -0.3841 -0.6585 0.2953, -0.3843 -0.6636 0.2953, -0.3859 -0.6709 0.2953, -0.3886 -0.6769 0.2953, -0.3928 -0.636 0.2953, -0.3902 -0.6386 0.2953, -0.3872 -0.6432 0.2953, -0.385 -0.6493 0.2953, -0.4056 -0.6296 0.2953, -0.3987 -0.6321 0.2953
            ]
        }
        coordIndex [
            0,1,2,-1,2,1,3,-1,4,0,5,-1,5,0,2,-1,6,4,7,-1,7,4,5,-1,8,6,9,-1,9,6,7,-1,10,8,11,-1,11,8,9,-1,1,10,3,-1,3,10,11,-1,6,8,4,-1,4,8,10,-1,4,10,0,-1,0,10,1,-1,12,13,14,-1,14,13,15,-1,15,16,14,-1,14,16,17,-1,14,17,18,-1,18,17,19,-1,18,19,20,-1,21,20,22,-1,22,20,19,-1,21,22,23,-1,21,23,24,-1,24,23,25,-1,24,25,26,-1,26,25,27,-1,26,27,28,-1,28,27,29,-1,28,29,30,-1,30,29,31,-1,30,31,32,-1,32,31,33,-1,32,33,34,-1,34,33,35,-1,34,35,36,-1,36,35,37,-1,36,37,38,-1,38,37,39,-1,38,39,40,-1,40,39,41,-1,40,41,42,-1,42,41,43,-1,42,43,44,-1,44,43,45,-1,44,45,46,-1,46,45,47,-1,46,47,48,-1,48,47,49,-1,48,49,50,-1,50,49,51,-1,50,51,52,-1,52,51,53,-1,52,53,54,-1,54,53,55,-1,54,55,56,-1,56,55,57,-1,56,57,58,-1,58,57,59,-1,58,59,60,-1,60,59,61,-1,60,61,62,-1,62,61,63,-1,62,63,64,-1,64,63,65,-1,64,65,66,-1,67,66,68,-1,68,66,65,-1,69,70,71,-1,67,68,72,-1,67,72,73,-1,73,72,74,-1,73,74,71,-1,71,74,75,-1,71,75,69,-1,70,69,76,-1,70,76,77,-1,76,78,77,-1,77,78,79,-1,77,79,80,-1,80,79,81,-1,80,81,82,-1,82,81,83,-1,82,83,84,-1,84,83,85,-1,86,87,85,-1,85,87,88,-1,85,88,84,-1,86,89,87,-1,87,89,90,-1,87,90,91,-1,91,90,92,-1,91,92,93,-1,93,92,94,-1,95,96,94,-1,94,96,97,-1,94,97,93,-1,95,98,96,-1,96,98,99,-1,96,99,100,-1,100,99,101,-1,100,101,102,-1,13,12,103,-1,102,101,104,-1,102,104,105,-1,105,104,106,-1,105,106,107,-1,107,106,108,-1,107,108,103,-1,103,108,109,-1,103,109,13,-1,64,66,67,-1,46,48,88,-1,64,67,62,-1,62,67,73,-1,62,73,60,-1,60,73,71,-1,60,71,58,-1,58,71,70,-1,58,70,56,-1,56,70,77,-1,56,77,54,-1,20,21,18,-1,18,21,24,-1,18,24,14,-1,14,24,26,-1,14,26,12,-1,12,26,28,-1,12,28,103,-1,103,28,30,-1,103,30,107,-1,107,30,32,-1,107,32,105,-1,105,32,34,-1,105,34,102,-1,102,34,36,-1,102,36,100,-1,100,36,38,-1,100,38,96,-1,88,48,84,-1,77,80,54,-1,54,80,82,-1,54,82,52,-1,52,82,84,-1,52,84,50,-1,50,84,48,-1,93,44,91,-1,91,44,46,-1,91,46,87,-1,87,46,88,-1,96,38,97,-1,97,38,40,-1,97,40,93,-1,93,40,42,-1,93,42,44,-1,110,111,112,-1,112,111,113,-1,114,115,116,-1,116,115,110,-1,116,110,112,-1,117,115,118,-1,118,115,114,-1,117,118,119,-1,119,118,120,-1,119,120,121,-1,122,119,123,-1,123,119,121,-1,124,125,126,-1,126,125,122,-1,126,122,123,-1,127,125,128,-1,128,125,124,-1,127,128,129,-1,129,128,130,-1,129,130,131,-1,132,129,133,-1,133,129,131,-1,134,135,136,-1,136,135,132,-1,136,132,133,-1,137,135,138,-1,138,135,134,-1,137,138,111,-1,111,138,139,-1,111,139,113,-1,137,111,110,-1,110,115,137,-1,137,115,117,-1,137,117,135,-1,129,132,127,-1,127,132,135,-1,127,135,125,-1,125,135,117,-1,125,117,122,-1,122,117,119,-1,140,141,142,-1,142,141,143,-1,142,143,144,-1,144,143,145,-1,144,145,146,-1,146,145,147,-1,146,147,148,-1,148,147,149,-1,148,149,150,-1,150,149,151,-1,150,151,152,-1,152,151,153,-1,152,153,154,-1,154,153,155,-1,154,155,156,-1,156,155,157,-1,156,157,158,-1,158,157,159,-1,158,159,160,-1,160,159,161,-1,160,161,162,-1,162,161,163,-1,162,163,164,-1,164,163,165,-1,164,165,166,-1,166,165,167,-1,166,167,168,-1,168,167,169,-1,168,169,170,-1,170,169,171,-1,170,171,172,-1,172,171,173,-1,172,173,174,-1,174,173,140,-1,174,140,142,-1,148,150,175,-1,175,150,176,-1,177,142,144,-1,148,175,178,-1,148,178,146,-1,146,178,179,-1,146,179,144,-1,144,179,180,-1,144,180,177,-1,142,177,181,-1,142,181,174,-1,174,181,182,-1,174,182,172,-1,172,182,183,-1,172,183,170,-1,170,183,184,-1,170,184,168,-1,168,184,185,-1,168,185,166,-1,166,185,186,-1,166,186,164,-1,164,186,187,-1,164,187,162,-1,162,187,188,-1,162,188,160,-1,189,154,156,-1,160,188,190,-1,160,190,158,-1,158,190,191,-1,158,191,156,-1,156,191,192,-1,156,192,189,-1,152,154,193,-1,193,154,189,-1,150,152,176,-1,176,152,193,-1,155,153,194,-1,194,153,195,-1,153,151,195,-1,195,151,196,-1,151,149,196,-1,196,149,197,-1,141,198,199,-1,141,199,143,-1,143,199,200,-1,143,200,145,-1,145,200,201,-1,145,201,147,-1,147,201,197,-1,147,197,149,-1,169,202,203,-1,169,203,171,-1,171,203,204,-1,171,204,173,-1,173,204,205,-1,173,205,140,-1,140,205,198,-1,140,198,141,-1,161,206,207,-1,161,207,163,-1,163,207,208,-1,163,208,165,-1,165,208,209,-1,165,209,167,-1,167,209,202,-1,167,202,169,-1,155,194,210,-1,155,210,157,-1,157,210,211,-1,157,211,159,-1,159,211,206,-1,159,206,161,-1,
        ]
    }
}
Shape{
    appearance Appearance {
        material  Material 	{
            diffuseColor 0.25098039215686274 0.25098039215686274 0.25098039215686274
            specularColor 0.12549019607843137 0.12549019607843137 0.12549019607843137
            ambientIntensity 0.251
            transparency 0.0
            shininess 0.5
        }
    }
    geometry IndexedFaceSet {
        ccw TRUE
        solid FALSE
        coord DEF co Coordinate {
            point [
                -0.428 -0.6284 0.2953, -0.428 -0.6902 0.2953, -0.416 -0.6284 0.2953, -0.4164 -0.6902 0.2953, -0.4062 -0.6891 0.2953, -0.3994 -0.6866 0.2953, -0.3941 -0.6832 0.2953, -0.3926 -0.6818 0.2953, -0.3886 -0.6769 0.2953, -0.3859 -0.6709 0.2953, -0.3843 -0.6636 0.2953, -0.3841 -0.6585 0.2953, -0.385 -0.6493 0.2953, -0.3872 -0.6432 0.2953, -0.3902 -0.6386 0.2953, -0.3928 -0.636 0.2953, -0.4056 -0.6296 0.2953, -0.3987 -0.6321 0.2953
            ]
        }
        coordIndex [
            0,1,2,-1,2,1,3,-1,2,3,4,-1,4,5,2,-1,2,5,6,-1,2,6,7,-1,7,8,2,-1,2,8,9,-1,2,9,10,-1,10,11,2,-1,2,11,12,-1,2,12,13,-1,13,14,2,-1,2,14,15,-1,2,15,16,-1,16,15,17,-1,
        ]
    }
}
Shape{
    appearance Appearance {
        material  Material 	{
            diffuseColor 1.0 1.0 1.0
            specularColor 0.5019607843137255 0.5019607843137255 0.5019607843137255
            ambientIntensity 1.0
            transparency 0.0
            shininess 0.5
        }
    }
    geometry IndexedFaceSet {
        ccw TRUE
        solid FALSE
        coord DEF co Coordinate {
            point [
                -0.3464 -0.6684 0.2992, -0.3496 -0.6774 0.2992, -0.3195 -0.6684 0.2992, -0.3163 -0.6774 0.2992, -0.3344 -0.6351 0.2992, -0.3383 -0.6192 0.2992, -0.3688 -0.6993 0.2992, -0.3573 -0.6993 0.2992, -0.3337 -0.6327 0.2992, -0.3331 -0.6295 0.2992, -0.3272 -0.6192 0.2992, -0.3328 -0.6295 0.2992, -0.3322 -0.6329 0.2992, -0.3316 -0.6351 0.2992, -0.2967 -0.6993 0.2992, -0.3081 -0.6993 0.2992, -0.3272 -0.6192 0.2953, -0.2967 -0.6993 0.2953, -0.3383 -0.6192 0.2953, -0.3688 -0.6993 0.2953, -0.3457 -0.6387 0.2953, -0.3573 -0.6993 0.2953, -0.3496 -0.6774 0.2953, -0.3163 -0.6774 0.2953, -0.3457 -0.6774 0.2953, -0.3081 -0.6993 0.2953, -0.3464 -0.6684 0.2953, -0.3195 -0.6684 0.2953, -0.3316 -0.6351 0.2953, -0.3328 -0.6295 0.2953, -0.3322 -0.6329 0.2953, -0.3331 -0.6295 0.2953, -0.3344 -0.6351 0.2953, -0.3337 -0.6327 0.2953
            ]
        }
        coordIndex [
            0,1,2,-1,2,1,3,-1,4,5,0,-1,0,5,6,-1,0,6,1,-1,1,6,7,-1,4,8,5,-1,5,8,9,-1,5,9,10,-1,10,9,11,-1,10,11,12,-1,12,13,10,-1,10,13,2,-1,10,2,14,-1,14,2,3,-1,14,3,15,-1,10,14,16,-1,16,14,17,-1,5,10,18,-1,18,10,16,-1,19,6,20,-1,20,6,5,-1,20,5,18,-1,7,6,21,-1,21,6,19,-1,1,7,22,-1,22,7,21,-1,23,3,24,-1,24,3,1,-1,24,1,22,-1,15,3,25,-1,25,3,23,-1,14,15,17,-1,17,15,25,-1,0,2,26,-1,26,2,27,-1,2,13,27,-1,27,13,28,-1,11,29,30,-1,11,30,12,-1,12,30,28,-1,12,28,13,-1,11,9,29,-1,29,9,31,-1,4,32,33,-1,4,33,8,-1,8,33,31,-1,8,31,9,-1,4,0,32,-1,32,0,26,-1,
        ]
    }
}
Shape{
    appearance Appearance {
        material  Material 	{
            diffuseColor 0.25098039215686274 0.25098039215686274 0.25098039215686274
            specularColor 0.12549019607843137 0.12549019607843137 0.12549019607843137
            ambientIntensity 0.251
            transparency 0.0
            shininess 0.5
        }
    }
    geometry IndexedFaceSet {
        ccw TRUE
        solid FALSE
        coord DEF co Coordinate {
            point [
                -0.3328 -0.6295 0.2953, -0.3331 -0.6295 0.2953, -0.3322 -0.6329 0.2953, -0.3337 -0.6327 0.2953, -0.3316 -0.6351 0.2953, -0.3344 -0.6351 0.2953, -0.3195 -0.6684 0.2953, -0.3464 -0.6684 0.2953
            ]
        }
        coordIndex [
            0,1,2,-1,2,1,3,-1,2,3,4,-1,4,3,5,-1,4,5,6,-1,6,5,7,-1,
        ]
    }
}
Shape{
    appearance Appearance {
        material  Material 	{
            diffuseColor 1.0 1.0 1.0
            specularColor 0.5019607843137255 0.5019607843137255 0.5019607843137255
            ambientIntensity 1.0
            transparency 0.0
            shininess 0.5
        }
    }
    geometry IndexedFaceSet {
        ccw TRUE
        solid FALSE
        coord DEF co Coordinate {
            point [
                -0.575 -0.8172 0.2992, -0.575 -0.8263 0.2992, -0.575 -0.8172 0.2953, -0.575 -0.8263 0.2953, -0.6077 -0.8172 0.2992, -0.6077 -0.8172 0.2953, -0.6077 -0.7903 0.2992, -0.6077 -0.7903 0.2953, -0.5791 -0.7903 0.2992, -0.5791 -0.7903 0.2953, -0.5791 -0.7811 0.2992, -0.5791 -0.7811 0.2953, -0.6077 -0.7811 0.2992, -0.6077 -0.7811 0.2953, -0.6077 -0.7555 0.2992, -0.6077 -0.7555 0.2953, -0.5768 -0.7555 0.2992, -0.5768 -0.7555 0.2953, -0.5768 -0.7463 0.2992, -0.5768 -0.7463 0.2953, -0.618 -0.7463 0.2992, -0.618 -0.7463 0.2953, -0.618 -0.8263 0.2992, -0.618 -0.8263 0.2953, -0.5429 -0.7994 0.2992, -0.5295 -0.7976 0.2992, -0.5194 -0.7895 0.2992, -0.5295 -0.8263 0.2992, -0.5194 -0.8263 0.2992, -0.5295 -0.8175 0.2992, -0.5295 -0.79 0.2992, -0.5512 -0.8019 0.2992, -0.5488 -0.8008 0.2992, -0.5297 -0.8175 0.2992, -0.5349 -0.8159 0.2992, -0.5321 -0.8208 0.2992, -0.5377 -0.8179 0.2992, -0.5295 -0.8031 0.2992, -0.5301 -0.8081 0.2992, -0.5315 -0.8117 0.2992, -0.5338 -0.8148 0.2992, -0.5297 -0.7861 0.2992, -0.5202 -0.7818 0.2992, -0.5307 -0.7823 0.2992, -0.5218 -0.7773 0.2992, -0.5318 -0.7802 0.2992, -0.5239 -0.7741 0.2992, -0.5333 -0.7785 0.2992, -0.5266 -0.7715 0.2992, -0.535 -0.7773 0.2992, -0.5299 -0.7696 0.2992, -0.5373 -0.7764 0.2992, -0.5342 -0.7684 0.2992, -0.541 -0.776 0.2992, -0.5401 -0.7678 0.2992, -0.5465 -0.7765 0.2992, -0.5504 -0.7691 0.2992, -0.5528 -0.7785 0.2992, -0.5578 -0.772 0.2992, -0.5598 -0.7829 0.2992, -0.5598 -0.7731 0.2992, -0.5543 -0.8143 0.2992, -0.5619 -0.8216 0.2992, -0.5532 -0.816 0.2992, -0.5605 -0.8232 0.2992, -0.5523 -0.8169 0.2992, -0.5574 -0.8254 0.2992, -0.5503 -0.8182 0.2992, -0.5536 -0.8269 0.2992, -0.548 -0.8191 0.2992, -0.5489 -0.8276 0.2992, -0.5447 -0.8194 0.2992, -0.5473 -0.8277 0.2992, -0.5417 -0.827 0.2992, -0.5408 -0.819 0.2992, -0.5377 -0.8255 0.2992, -0.5353 -0.824 0.2992, -0.5551 -0.8086 0.2992, -0.5654 -0.8098 0.2992, -0.5552 -0.8102 0.2992, -0.5654 -0.811 0.2992, -0.555 -0.8125 0.2992, -0.5649 -0.8154 0.2992, -0.5637 -0.8188 0.2992, -0.5464 -0.7923 0.2992, -0.554 -0.7942 0.2992, -0.5526 -0.8029 0.2992, -0.5583 -0.7964 0.2992, -0.5538 -0.8044 0.2992, -0.5613 -0.7991 0.2992, -0.5546 -0.8063 0.2992, -0.5633 -0.8019 0.2992, -0.5647 -0.8055 0.2992, -0.5401 -0.7678 0.2953, -0.5504 -0.7691 0.2953, -0.5578 -0.772 0.2953, -0.5598 -0.7731 0.2953, -0.5598 -0.7829 0.2953, -0.5528 -0.7785 0.2953, -0.5465 -0.7765 0.2953, -0.541 -0.776 0.2953, -0.5373 -0.7764 0.2953, -0.535 -0.7773 0.2953, -0.5333 -0.7785 0.2953, -0.5318 -0.7802 0.2953, -0.5307 -0.7823 0.2953, -0.5297 -0.7861 0.2953, -0.5295 -0.79 0.2953, -0.5464 -0.7923 0.2953, -0.554 -0.7942 0.2953, -0.5583 -0.7964 0.2953, -0.5613 -0.7991 0.2953, -0.5633 -0.8019 0.2953, -0.5647 -0.8055 0.2953, -0.5654 -0.8098 0.2953, -0.5654 -0.811 0.2953, -0.5649 -0.8154 0.2953, -0.5637 -0.8188 0.2953, -0.5619 -0.8216 0.2953, -0.5605 -0.8232 0.2953, -0.5473 -0.8277 0.2953, -0.5574 -0.8254 0.2953, -0.5536 -0.8269 0.2953, -0.5529 -0.827 0.2953, -0.5489 -0.8276 0.2953, -0.5417 -0.827 0.2953, -0.5417 -0.827 0.2953, -0.5377 -0.8255 0.2953, -0.5353 -0.824 0.2953, -0.5321 -0.8208 0.2953, -0.5297 -0.8175 0.2953, -0.5295 -0.8175 0.2953, -0.5295 -0.8263 0.2953, -0.5194 -0.8263 0.2953, -0.5194 -0.7895 0.2953, -0.5202 -0.7818 0.2953, -0.5218 -0.7773 0.2953, -0.5239 -0.7741 0.2953, -0.5266 -0.7715 0.2953, -0.5299 -0.7696 0.2953, -0.5342 -0.7684 0.2953, -0.5526 -0.8029 0.2953, -0.5512 -0.8019 0.2953, -0.5488 -0.8008 0.2953, -0.5429 -0.7994 0.2953, -0.5552 -0.8102 0.2953, -0.5551 -0.8086 0.2953, -0.5546 -0.8063 0.2953, -0.5538 -0.8044 0.2953, -0.5523 -0.8169 0.2953, -0.5532 -0.816 0.2953, -0.5543 -0.8143 0.2953, -0.555 -0.8125 0.2953, -0.5447 -0.8194 0.2953, -0.548 -0.8191 0.2953, -0.5503 -0.8182 0.2953, -0.5338 -0.8148 0.2953, -0.5349 -0.8159 0.2953, -0.5377 -0.8179 0.2953, -0.5408 -0.819 0.2953, -0.5295 -0.8031 0.2953, -0.5301 -0.8081 0.2953, -0.5315 -0.8117 0.2953, -0.5295 -0.7976 0.2953
            ]
        }
        coordIndex [
            0,1,2,-1,2,1,3,-1,4,0,5,-1,5,0,2,-1,6,4,7,-1,7,4,5,-1,8,6,9,-1,9,6,7,-1,10,8,11,-1,11,8,9,-1,12,10,13,-1,13,10,11,-1,14,12,15,-1,15,12,13,-1,16,14,17,-1,17,14,15,-1,18,16,19,-1,19,16,17,-1,20,18,21,-1,21,18,19,-1,22,20,23,-1,23,20,21,-1,1,22,3,-1,3,22,23,-1,22,1,0,-1,0,4,22,-1,22,4,6,-1,22,6,20,-1,16,18,14,-1,14,18,20,-1,14,20,12,-1,12,20,6,-1,12,6,10,-1,10,6,8,-1,24,25,26,-1,27,28,29,-1,29,28,26,-1,30,31,32,-1,33,34,35,-1,35,34,36,-1,25,37,26,-1,26,37,38,-1,26,38,29,-1,29,38,39,-1,29,39,33,-1,33,39,40,-1,33,40,34,-1,32,24,30,-1,30,24,26,-1,30,26,41,-1,41,26,42,-1,41,42,43,-1,43,42,44,-1,43,44,45,-1,45,44,46,-1,45,46,47,-1,47,46,48,-1,47,48,49,-1,49,48,50,-1,49,50,51,-1,51,50,52,-1,51,52,53,-1,53,52,54,-1,53,54,55,-1,55,54,56,-1,55,56,57,-1,57,56,58,-1,57,58,59,-1,59,58,60,-1,61,62,63,-1,63,62,64,-1,63,64,65,-1,65,64,66,-1,65,66,67,-1,67,66,68,-1,67,68,69,-1,69,68,70,-1,69,70,71,-1,70,72,71,-1,71,72,73,-1,71,73,74,-1,74,73,75,-1,74,75,36,-1,36,75,76,-1,36,76,35,-1,77,78,79,-1,79,78,80,-1,79,80,81,-1,81,80,82,-1,81,82,61,-1,61,82,83,-1,61,83,62,-1,30,84,31,-1,31,84,85,-1,31,85,86,-1,86,85,87,-1,86,87,88,-1,88,87,89,-1,88,89,90,-1,90,89,91,-1,90,91,77,-1,77,91,92,-1,77,92,78,-1,54,93,94,-1,54,94,56,-1,56,94,95,-1,56,95,58,-1,58,95,96,-1,58,96,60,-1,59,60,97,-1,97,60,96,-1,59,97,98,-1,59,98,57,-1,57,98,99,-1,57,99,55,-1,55,99,100,-1,55,100,53,-1,53,100,101,-1,53,101,51,-1,51,101,102,-1,51,102,49,-1,49,102,103,-1,49,103,47,-1,47,103,104,-1,47,104,45,-1,45,104,105,-1,45,105,43,-1,43,105,106,-1,43,106,41,-1,41,106,107,-1,41,107,30,-1,84,30,108,-1,108,30,107,-1,84,108,109,-1,84,109,85,-1,85,109,110,-1,85,110,87,-1,87,110,111,-1,87,111,89,-1,89,111,112,-1,89,112,91,-1,91,112,113,-1,91,113,92,-1,92,113,114,-1,92,114,78,-1,78,114,115,-1,78,115,80,-1,80,115,116,-1,80,116,82,-1,82,116,117,-1,82,117,83,-1,83,117,118,-1,83,118,62,-1,62,118,119,-1,62,119,64,-1,120,72,70,-1,64,119,121,-1,64,121,66,-1,66,121,122,-1,66,122,68,-1,68,122,123,-1,68,123,70,-1,70,123,124,-1,70,124,120,-1,72,120,125,-1,72,125,73,-1,73,125,126,-1,73,126,75,-1,126,127,75,-1,75,127,128,-1,75,128,76,-1,76,128,129,-1,76,129,35,-1,35,129,130,-1,35,130,33,-1,29,33,131,-1,131,33,130,-1,27,29,132,-1,132,29,131,-1,28,27,133,-1,133,27,132,-1,26,28,134,-1,134,28,133,-1,26,134,135,-1,26,135,42,-1,42,135,136,-1,42,136,44,-1,44,136,137,-1,44,137,46,-1,46,137,138,-1,46,138,48,-1,48,138,139,-1,48,139,50,-1,50,139,140,-1,50,140,52,-1,52,140,93,-1,52,93,54,-1,86,141,142,-1,86,142,31,-1,31,142,143,-1,31,143,32,-1,32,143,144,-1,32,144,24,-1,79,145,146,-1,79,146,77,-1,77,146,147,-1,77,147,90,-1,90,147,148,-1,90,148,88,-1,88,148,141,-1,88,141,86,-1,65,149,150,-1,65,150,63,-1,63,150,151,-1,63,151,61,-1,61,151,152,-1,61,152,81,-1,81,152,145,-1,81,145,79,-1,71,153,154,-1,71,154,69,-1,69,154,155,-1,69,155,67,-1,67,155,149,-1,67,149,65,-1,40,156,157,-1,40,157,34,-1,34,157,158,-1,34,158,36,-1,36,158,159,-1,36,159,74,-1,74,159,153,-1,74,153,71,-1,37,160,161,-1,37,161,38,-1,38,161,162,-1,38,162,39,-1,39,162,156,-1,39,156,40,-1,37,25,160,-1,160,25,163,-1,25,24,163,-1,163,24,144,-1,
        ]
    }
}
Shape{
    appearance Appearance {
        material  Material 	{
            diffuseColor 0.25098039215686274 0.25098039215686274 0.25098039215686274
            specularColor 0.12549019607843137 0.12549019607843137 0.12549019607843137
            ambientIntensity 0.251
            transparency 0.0
            shininess 0.5
        }
    }
    geometry IndexedFaceSet {
        ccw TRUE
        solid FALSE
        coord DEF co Coordinate {
            point [
                -0.5349 -0.8159 0.2953, -0.5338 -0.8148 0.2953, -0.5429 -0.7994 0.2953, -0.5315 -0.8117 0.2953, -0.5408 -0.819 0.2953, -0.5488 -0.8008 0.2953, -0.5512 -0.8019 0.2953, -0.5377 -0.8179 0.2953, -0.5301 -0.8081 0.2953, -0.5295 -0.8031 0.2953, -0.5295 -0.7976 0.2953, -0.5546 -0.8063 0.2953, -0.5551 -0.8086 0.2953, -0.5552 -0.8102 0.2953, -0.555 -0.8125 0.2953, -0.5503 -0.8182 0.2953, -0.548 -0.8191 0.2953, -0.5523 -0.8169 0.2953, -0.5447 -0.8194 0.2953, -0.5526 -0.8029 0.2953, -0.5538 -0.8044 0.2953, -0.5543 -0.8143 0.2953, -0.5532 -0.816 0.2953
            ]
        }
        coordIndex [
            0,1,2,-1,2,1,3,-1,4,5,6,-1,5,4,2,-1,2,4,7,-1,2,7,0,-1,3,8,2,-1,2,8,9,-1,2,9,10,-1,11,12,4,-1,4,12,13,-1,4,13,14,-1,15,16,17,-1,17,16,18,-1,17,18,4,-1,6,19,4,-1,4,19,20,-1,4,20,11,-1,14,21,4,-1,4,21,22,-1,4,22,17,-1,
        ]
    }
}
Shape{
    appearance Appearance {
        material  Material 	{
            diffuseColor 1.0 1.0 1.0
            specularColor 0.5019607843137255 0.5019607843137255 0.5019607843137255
            ambientIntensity 1.0
            transparency 0.0
            shininess 0.5
        }
    }
    geometry IndexedFaceSet {
        ccw TRUE
        solid FALSE
        coord DEF co Coordinate {
            point [
                -0.5058 -0.814 0.2953, -0.5058 -0.814 0.2992, -0.5022 -0.8162 0.2992, -0.4893 -0.8195 0.2992, -0.4893 -0.8195 0.2953, -0.496 -0.8187 0.2953, -0.496 -0.8187 0.2992, -0.5012 -0.8166 0.2953, -0.5022 -0.8162 0.2953, -0.5058 -0.8243 0.2992, -0.5058 -0.8243 0.2953, -0.4988 -0.8268 0.2992, -0.5012 -0.8259 0.2953, -0.4903 -0.8277 0.2953, -0.4903 -0.8277 0.2992, -0.4968 -0.827 0.2953, -0.4988 -0.8268 0.2953, -0.484 -0.827 0.2953, -0.482 -0.8268 0.2992, -0.482 -0.8268 0.2953, -0.4765 -0.8248 0.2953, -0.4765 -0.8248 0.2992, -0.4737 -0.8231 0.2953, -0.4737 -0.8231 0.2992, -0.4707 -0.8205 0.2953, -0.4707 -0.8205 0.2992, -0.4689 -0.8179 0.2953, -0.4689 -0.8179 0.2992, -0.4677 -0.8147 0.2953, -0.4677 -0.8147 0.2992, -0.4672 -0.8108 0.2953, -0.4672 -0.8108 0.2992, -0.4677 -0.8069 0.2953, -0.4677 -0.8069 0.2992, -0.4688 -0.8039 0.2953, -0.4688 -0.8039 0.2992, -0.4706 -0.8013 0.2953, -0.4706 -0.8013 0.2992, -0.473 -0.7992 0.2953, -0.473 -0.7992 0.2992, -0.4796 -0.7955 0.2953, -0.4796 -0.7955 0.2992, -0.4835 -0.7939 0.2953, -0.4835 -0.7939 0.2992, -0.4897 -0.7912 0.2953, -0.4897 -0.7912 0.2992, -0.4933 -0.789 0.2953, -0.4933 -0.789 0.2992, -0.4942 -0.7879 0.2953, -0.4942 -0.7879 0.2992, -0.495 -0.7866 0.2953, -0.495 -0.7866 0.2992, -0.4954 -0.785 0.2953, -0.4954 -0.785 0.2992, -0.4954 -0.7837 0.2953, -0.4954 -0.7837 0.2992, -0.4953 -0.7821 0.2953, -0.4953 -0.7821 0.2992, -0.4948 -0.7807 0.2953, -0.4948 -0.7807 0.2992, -0.4939 -0.7794 0.2953, -0.4939 -0.7794 0.2992, -0.4924 -0.7781 0.2953, -0.4924 -0.7781 0.2992, -0.4901 -0.7769 0.2953, -0.4901 -0.7769 0.2992, -0.4875 -0.7762 0.2953, -0.4875 -0.7762 0.2992, -0.4845 -0.776 0.2953, -0.4845 -0.776 0.2992, -0.4775 -0.7768 0.2953, -0.4775 -0.7768 0.2992, -0.4718 -0.779 0.2953, -0.4718 -0.779 0.2992, -0.47 -0.7801 0.2953, -0.47 -0.7801 0.2992, -0.47 -0.7704 0.2992, -0.47 -0.7704 0.2953, -0.4765 -0.7684 0.2953, -0.4765 -0.7684 0.2992, -0.4835 -0.7678 0.2953, -0.4835 -0.7678 0.2992, -0.4916 -0.7688 0.2953, -0.4916 -0.7688 0.2992, -0.497 -0.7709 0.2953, -0.497 -0.7709 0.2992, -0.4994 -0.7724 0.2953, -0.4994 -0.7724 0.2992, -0.5012 -0.774 0.2953, -0.5024 -0.7751 0.2992, -0.5024 -0.7751 0.2953, -0.5042 -0.7778 0.2953, -0.5042 -0.7778 0.2992, -0.5054 -0.781 0.2953, -0.5054 -0.781 0.2992, -0.5058 -0.7846 0.2953, -0.5058 -0.7846 0.2992, -0.5053 -0.7886 0.2953, -0.5053 -0.7886 0.2992, -0.5042 -0.7916 0.2953, -0.5042 -0.7916 0.2992, -0.5029 -0.7936 0.2953, -0.5029 -0.7936 0.2992, -0.4906 -0.8012 0.2953, -0.4906 -0.8012 0.2992, -0.4966 -0.7984 0.2992, -0.5013 -0.7953 0.2953, -0.5013 -0.7953 0.2992, -0.5012 -0.7954 0.2953, -0.4966 -0.7984 0.2953, -0.484 -0.8039 0.2953, -0.484 -0.8039 0.2992, -0.4801 -0.8063 0.2953, -0.4801 -0.8063 0.2992, -0.4788 -0.8076 0.2953, -0.4788 -0.8076 0.2992, -0.4781 -0.8089 0.2953, -0.4781 -0.8089 0.2992, -0.4776 -0.8105 0.2953, -0.4776 -0.8105 0.2992, -0.4775 -0.8117 0.2953, -0.4775 -0.8117 0.2992, -0.4777 -0.8137 0.2953, -0.4777 -0.8137 0.2992, -0.4782 -0.8151 0.2953, -0.4782 -0.8151 0.2992, -0.4791 -0.8164 0.2953, -0.4791 -0.8164 0.2992, -0.4803 -0.8174 0.2953, -0.4803 -0.8174 0.2992, -0.4812 -0.818 0.2953, -0.4812 -0.818 0.2992, -0.4838 -0.8189 0.2953, -0.4838 -0.8189 0.2992, -0.4889 -0.8195 0.2953, -0.4889 -0.8195 0.2992, -0.4175 -0.7691 0.2992, -0.4071 -0.7691 0.2992, -0.4175 -0.7691 0.2953, -0.4071 -0.7691 0.2953, -0.4331 -0.8122 0.2992, -0.4331 -0.8122 0.2953, -0.4339 -0.8149 0.2953, -0.4339 -0.8149 0.2992, -0.4344 -0.8168 0.2953, -0.4344 -0.8168 0.2992, -0.4346 -0.8168 0.2992, -0.4346 -0.8168 0.2953, -0.4358 -0.8121 0.2992, -0.4358 -0.8121 0.2953, -0.4508 -0.7691 0.2953, -0.4508 -0.7691 0.2992, -0.4459 -0.7831 0.2953, -0.462 -0.7691 0.2992, -0.462 -0.7691 0.2953, -0.4396 -0.8262 0.2953, -0.4396 -0.8262 0.2992, -0.4459 -0.81 0.2953, -0.444 -0.8366 0.2953, -0.444 -0.8366 0.2992, -0.4399 -0.827 0.2953, -0.4459 -0.8402 0.2953, -0.4461 -0.8404 0.2992, -0.4461 -0.8404 0.2953, -0.4479 -0.8424 0.2953, -0.4479 -0.8424 0.2992, -0.4492 -0.8433 0.2953, -0.4492 -0.8433 0.2992, -0.4514 -0.8443 0.2953, -0.4514 -0.8443 0.2992, -0.4538 -0.8447 0.2953, -0.4538 -0.8447 0.2992, -0.4542 -0.8447 0.2953, -0.4542 -0.8447 0.2992, -0.4578 -0.8442 0.2953, -0.4578 -0.8442 0.2992, -0.4599 -0.8435 0.2953, -0.4599 -0.8435 0.2992, -0.4599 -0.8524 0.2992, -0.4599 -0.8524 0.2953, -0.457 -0.853 0.2953, -0.457 -0.853 0.2992, -0.4535 -0.8533 0.2953, -0.4535 -0.8533 0.2992, -0.4495 -0.8528 0.2953, -0.4495 -0.8528 0.2992, -0.4459 -0.8515 0.2953, -0.4455 -0.8513 0.2992, -0.4455 -0.8513 0.2953, -0.442 -0.8489 0.2953, -0.442 -0.8489 0.2992, -0.4411 -0.8481 0.2953, -0.4411 -0.8481 0.2992, -0.4375 -0.8436 0.2953, -0.4375 -0.8436 0.2992, -0.4331 -0.835 0.2953, -0.4331 -0.835 0.2992, -0.4299 -0.827 0.2953, -0.3532 -0.8172 0.2992, -0.3532 -0.8263 0.2992, -0.3532 -0.8172 0.2953, -0.3532 -0.8263 0.2953, -0.386 -0.8172 0.2953, -0.386 -0.8172 0.2992, -0.371 -0.8172 0.2953, -0.386 -0.7903 0.2992, -0.386 -0.7903 0.2953, -0.3573 -0.7903 0.2953, -0.3573 -0.7903 0.2992, -0.371 -0.7903 0.2953, -0.3573 -0.7811 0.2992, -0.3573 -0.7811 0.2953, -0.386 -0.7811 0.2953, -0.386 -0.7811 0.2992, -0.371 -0.7811 0.2953, -0.386 -0.7555 0.2992, -0.386 -0.7555 0.2953, -0.3551 -0.7555 0.2953, -0.3551 -0.7555 0.2992, -0.371 -0.7555 0.2953, -0.3551 -0.7463 0.2992, -0.3551 -0.7463 0.2953, -0.3963 -0.7463 0.2953, -0.3963 -0.7463 0.2992, -0.371 -0.7463 0.2953, -0.3963 -0.8263 0.2992, -0.3963 -0.8263 0.2953, -0.371 -0.8263 0.2953, -0.2884 -0.8039 0.2992, -0.2923 -0.8088 0.2992, -0.285 -0.8151 0.2992, -0.2938 -0.8102 0.2992, -0.2932 -0.821 0.2992, -0.2991 -0.8137 0.2992, -0.3023 -0.8246 0.2992, -0.306 -0.8161 0.2992, -0.3161 -0.8263 0.2992, -0.3162 -0.8172 0.2992, -0.3381 -0.8263 0.2992, -0.3278 -0.8172 0.2992, -0.3381 -0.7463 0.2992, -0.3278 -0.7555 0.2992, -0.3153 -0.7463 0.2992, -0.3157 -0.7555 0.2992, -0.3031 -0.7476 0.2992, -0.3054 -0.7566 0.2992, -0.2934 -0.7511 0.2992, -0.2984 -0.7591 0.2992, -0.285 -0.7569 0.2992, -0.2926 -0.763 0.2992, -0.2823 -0.7595 0.2992, -0.2899 -0.7657 0.2992, -0.2773 -0.7665 0.2992, -0.2869 -0.7703 0.2992, -0.2743 -0.7741 0.2992, -0.2848 -0.7763 0.2992, -0.2729 -0.7853 0.2992, -0.2838 -0.7856 0.2992, -0.2732 -0.7903 0.2992, -0.2841 -0.7906 0.2992, -0.2751 -0.7997 0.2992, -0.2856 -0.798 0.2992, -0.279 -0.808 0.2992, -0.3161 -0.8263 0.2953, -0.3381 -0.8263 0.2953, -0.3023 -0.8246 0.2953, -0.2932 -0.821 0.2953, -0.285 -0.8151 0.2953, -0.279 -0.808 0.2953, -0.2751 -0.7997 0.2953, -0.2732 -0.7903 0.2953, -0.2729 -0.7853 0.2953, -0.2743 -0.7741 0.2953, -0.2773 -0.7665 0.2953, -0.2823 -0.7595 0.2953, -0.285 -0.7569 0.2953, -0.2934 -0.7511 0.2953, -0.3031 -0.7476 0.2953, -0.3153 -0.7463 0.2953, -0.3381 -0.7463 0.2953, -0.3157 -0.7555 0.2953, -0.3278 -0.7555 0.2953, -0.3278 -0.8172 0.2953, -0.3162 -0.8172 0.2953, -0.2923 -0.8088 0.2953, -0.2938 -0.8102 0.2953, -0.2991 -0.8137 0.2953, -0.306 -0.8161 0.2953, -0.2838 -0.7856 0.2953, -0.2841 -0.7906 0.2953, -0.2856 -0.798 0.2953, -0.2884 -0.8039 0.2953, -0.2926 -0.763 0.2953, -0.2899 -0.7657 0.2953, -0.2869 -0.7703 0.2953, -0.2848 -0.7763 0.2953, -0.3054 -0.7566 0.2953, -0.2984 -0.7591 0.2953
            ]
        }
        coordIndex [
            0,1,2,-1,3,4,5,-1,3,5,6,-1,6,5,7,-1,6,7,2,-1,2,7,8,-1,2,8,0,-1,9,1,10,-1,10,1,0,-1,9,10,11,-1,11,10,12,-1,13,14,15,-1,15,14,11,-1,15,11,16,-1,16,11,12,-1,13,17,14,-1,14,17,18,-1,17,19,18,-1,18,19,20,-1,18,20,21,-1,21,20,22,-1,21,22,23,-1,23,22,24,-1,23,24,25,-1,25,24,26,-1,25,26,27,-1,27,26,28,-1,27,28,29,-1,29,28,30,-1,29,30,31,-1,31,30,32,-1,31,32,33,-1,33,32,34,-1,33,34,35,-1,35,34,36,-1,35,36,37,-1,37,36,38,-1,37,38,39,-1,39,38,40,-1,39,40,41,-1,41,40,42,-1,41,42,43,-1,43,42,44,-1,43,44,45,-1,45,44,46,-1,45,46,47,-1,47,46,48,-1,47,48,49,-1,49,48,50,-1,49,50,51,-1,51,50,52,-1,51,52,53,-1,53,52,54,-1,53,54,55,-1,55,54,56,-1,55,56,57,-1,57,56,58,-1,57,58,59,-1,59,58,60,-1,59,60,61,-1,61,60,62,-1,61,62,63,-1,63,62,64,-1,63,64,65,-1,65,64,66,-1,65,66,67,-1,67,66,68,-1,67,68,69,-1,69,68,70,-1,69,70,71,-1,71,70,72,-1,71,72,73,-1,73,72,74,-1,73,74,75,-1,76,75,77,-1,77,75,74,-1,76,77,78,-1,76,78,79,-1,79,78,80,-1,79,80,81,-1,81,80,82,-1,81,82,83,-1,83,82,84,-1,83,84,85,-1,85,84,86,-1,85,86,87,-1,86,88,87,-1,87,88,89,-1,88,90,89,-1,89,90,91,-1,89,91,92,-1,92,91,93,-1,92,93,94,-1,94,93,95,-1,94,95,96,-1,96,95,97,-1,96,97,98,-1,98,97,99,-1,98,99,100,-1,100,99,101,-1,100,101,102,-1,103,104,105,-1,102,101,106,-1,102,106,107,-1,107,106,108,-1,107,108,105,-1,105,108,109,-1,105,109,103,-1,104,103,110,-1,104,110,111,-1,111,110,112,-1,111,112,113,-1,113,112,114,-1,113,114,115,-1,115,114,116,-1,115,116,117,-1,117,116,118,-1,117,118,119,-1,119,118,120,-1,119,120,121,-1,121,120,122,-1,121,122,123,-1,123,122,124,-1,123,124,125,-1,125,124,126,-1,125,126,127,-1,127,126,128,-1,127,128,129,-1,129,128,130,-1,129,130,131,-1,131,130,132,-1,131,132,133,-1,133,132,134,-1,133,134,135,-1,135,134,4,-1,135,4,3,-1,59,61,87,-1,87,61,85,-1,85,61,63,-1,85,63,83,-1,125,25,27,-1,111,43,104,-1,104,43,45,-1,125,27,123,-1,123,27,29,-1,123,29,121,-1,121,29,31,-1,121,31,119,-1,119,31,33,-1,119,33,117,-1,117,33,35,-1,117,35,115,-1,115,35,37,-1,115,37,113,-1,113,37,39,-1,113,39,111,-1,111,39,41,-1,111,41,43,-1,25,125,23,-1,23,125,127,-1,23,127,21,-1,14,3,11,-1,11,3,6,-1,11,6,9,-1,9,6,2,-1,9,2,1,-1,63,65,83,-1,83,65,67,-1,83,67,81,-1,81,67,69,-1,81,69,79,-1,79,69,71,-1,79,71,76,-1,76,71,73,-1,76,73,75,-1,127,129,21,-1,21,129,131,-1,21,131,18,-1,18,131,133,-1,18,133,14,-1,14,133,135,-1,14,135,3,-1,87,89,59,-1,59,89,92,-1,59,92,57,-1,57,92,94,-1,57,94,55,-1,55,94,96,-1,55,96,53,-1,53,96,98,-1,53,98,51,-1,51,98,100,-1,51,100,49,-1,49,100,102,-1,49,102,47,-1,47,102,107,-1,47,107,45,-1,45,107,105,-1,45,105,104,-1,136,137,138,-1,138,137,139,-1,140,136,141,-1,141,136,138,-1,140,141,142,-1,140,142,143,-1,143,142,144,-1,143,144,145,-1,146,145,147,-1,147,145,144,-1,148,146,149,-1,149,146,147,-1,150,151,152,-1,152,151,148,-1,152,148,149,-1,153,151,154,-1,154,151,150,-1,155,156,157,-1,157,156,153,-1,157,153,154,-1,158,159,160,-1,160,159,156,-1,160,156,155,-1,158,161,159,-1,159,161,162,-1,161,163,162,-1,162,163,164,-1,162,164,165,-1,165,164,166,-1,165,166,167,-1,167,166,168,-1,167,168,169,-1,169,168,170,-1,169,170,171,-1,171,170,172,-1,171,172,173,-1,173,172,174,-1,173,174,175,-1,175,174,176,-1,175,176,177,-1,178,177,179,-1,179,177,176,-1,178,179,180,-1,178,180,181,-1,181,180,182,-1,181,182,183,-1,183,182,184,-1,183,184,185,-1,185,184,186,-1,185,186,187,-1,186,188,187,-1,187,188,189,-1,187,189,190,-1,190,189,191,-1,190,191,192,-1,192,191,193,-1,192,193,194,-1,194,193,195,-1,194,195,196,-1,139,137,197,-1,197,137,196,-1,197,196,195,-1,143,145,196,-1,137,136,196,-1,196,136,140,-1,196,140,143,-1,151,153,148,-1,148,153,156,-1,148,156,146,-1,165,167,187,-1,183,173,181,-1,181,173,175,-1,181,175,178,-1,178,175,177,-1,145,146,196,-1,196,146,156,-1,196,156,194,-1,187,167,185,-1,185,167,169,-1,185,169,183,-1,183,169,171,-1,183,171,173,-1,156,159,194,-1,194,159,162,-1,194,162,192,-1,192,162,165,-1,192,165,190,-1,190,165,187,-1,198,199,200,-1,200,199,201,-1,202,203,204,-1,204,203,198,-1,204,198,200,-1,205,203,206,-1,206,203,202,-1,207,208,209,-1,209,208,205,-1,209,205,206,-1,210,208,211,-1,211,208,207,-1,212,213,214,-1,214,213,210,-1,214,210,211,-1,215,213,216,-1,216,213,212,-1,217,218,219,-1,219,218,215,-1,219,215,216,-1,220,218,221,-1,221,218,217,-1,222,223,224,-1,224,223,220,-1,224,220,221,-1,225,223,226,-1,226,223,222,-1,201,199,227,-1,227,199,225,-1,227,225,226,-1,225,199,198,-1,198,203,225,-1,225,203,205,-1,225,205,223,-1,218,220,215,-1,215,220,223,-1,215,223,213,-1,213,223,205,-1,213,205,210,-1,210,205,208,-1,228,229,230,-1,230,229,231,-1,230,231,232,-1,232,231,233,-1,232,233,234,-1,234,233,235,-1,234,235,236,-1,236,235,237,-1,236,237,238,-1,238,237,239,-1,238,239,240,-1,240,239,241,-1,240,241,242,-1,242,241,243,-1,242,243,244,-1,244,243,245,-1,244,245,246,-1,246,245,247,-1,246,247,248,-1,248,247,249,-1,248,249,250,-1,250,249,251,-1,250,251,252,-1,252,251,253,-1,252,253,254,-1,254,253,255,-1,254,255,256,-1,256,255,257,-1,256,257,258,-1,258,257,259,-1,258,259,260,-1,260,259,261,-1,260,261,262,-1,262,261,228,-1,262,228,230,-1,236,238,263,-1,263,238,264,-1,236,263,265,-1,236,265,234,-1,234,265,266,-1,234,266,232,-1,232,266,267,-1,232,267,230,-1,230,267,268,-1,230,268,262,-1,262,268,269,-1,262,269,260,-1,260,269,270,-1,260,270,258,-1,258,270,271,-1,258,271,256,-1,256,271,272,-1,256,272,254,-1,254,272,273,-1,254,273,252,-1,252,273,274,-1,252,274,250,-1,250,274,275,-1,250,275,248,-1,248,275,276,-1,248,276,246,-1,246,276,277,-1,246,277,244,-1,244,277,278,-1,244,278,242,-1,240,242,279,-1,279,242,278,-1,238,240,264,-1,264,240,279,-1,243,241,280,-1,280,241,281,-1,241,239,281,-1,281,239,282,-1,239,237,282,-1,282,237,283,-1,229,284,285,-1,229,285,231,-1,231,285,286,-1,231,286,233,-1,233,286,287,-1,233,287,235,-1,235,287,283,-1,235,283,237,-1,257,288,289,-1,257,289,259,-1,259,289,290,-1,259,290,261,-1,261,290,291,-1,261,291,228,-1,228,291,284,-1,228,284,229,-1,249,292,293,-1,249,293,251,-1,251,293,294,-1,251,294,253,-1,253,294,295,-1,253,295,255,-1,255,295,288,-1,255,288,257,-1,243,280,296,-1,243,296,245,-1,245,296,297,-1,245,297,247,-1,247,297,292,-1,247,292,249,-1,
        ]
    }
}
Shape{
    appearance Appearance {
        material  Material 	{
            diffuseColor 0.25098039215686274 0.25098039215686274 0.25098039215686274
            specularColor 0.12549019607843137 0.12549019607843137 0.12549019607843137
            ambientIntensity 0.251
            transparency 0.0
            shininess 0.5
        }
    }
    geometry IndexedFaceSet {
        ccw TRUE
        solid FALSE
        coord DEF co Coordinate {
            point [
                -0.3278 -0.7555 0.2953, -0.3278 -0.8172 0.2953, -0.3157 -0.7555 0.2953, -0.3162 -0.8172 0.2953, -0.306 -0.8161 0.2953, -0.2991 -0.8137 0.2953, -0.2938 -0.8102 0.2953, -0.2923 -0.8088 0.2953, -0.2884 -0.8039 0.2953, -0.2856 -0.798 0.2953, -0.2841 -0.7906 0.2953, -0.2838 -0.7856 0.2953, -0.2848 -0.7763 0.2953, -0.2869 -0.7703 0.2953, -0.2899 -0.7657 0.2953, -0.2926 -0.763 0.2953, -0.3054 -0.7566 0.2953, -0.2984 -0.7591 0.2953
            ]
        }
        coordIndex [
            0,1,2,-1,2,1,3,-1,2,3,4,-1,4,5,2,-1,2,5,6,-1,2,6,7,-1,7,8,2,-1,2,8,9,-1,2,9,10,-1,10,11,2,-1,2,11,12,-1,2,12,13,-1,13,14,2,-1,2,14,15,-1,2,15,16,-1,16,15,17,-1,
        ]
    }
}
Shape{
    appearance Appearance {
        material  Material 	{
            diffuseColor 1.0 1.0 1.0
            specularColor 0.5019607843137255 0.5019607843137255 0.5019607843137255
            ambientIntensity 1.0
            transparency 0.0
            shininess 0.5
        }
    }
    geometry IndexedFaceSet {
        ccw TRUE
        solid FALSE
        coord DEF co Coordinate {
            point [
                -0.2461 -0.7954 0.2992, -0.2494 -0.8044 0.2992, -0.2192 -0.7954 0.2992, -0.216 -0.8044 0.2992, -0.2341 -0.7621 0.2992, -0.238 -0.7463 0.2992, -0.2685 -0.8263 0.2992, -0.2571 -0.8263 0.2992, -0.2334 -0.7597 0.2992, -0.2328 -0.7565 0.2992, -0.2269 -0.7463 0.2992, -0.2326 -0.7565 0.2992, -0.2319 -0.7599 0.2992, -0.2313 -0.7621 0.2992, -0.1964 -0.8263 0.2992, -0.2079 -0.8263 0.2992, -0.2269 -0.7463 0.2953, -0.1964 -0.8263 0.2953, -0.238 -0.7463 0.2953, -0.2685 -0.8263 0.2953, -0.2571 -0.8263 0.2953, -0.2494 -0.8044 0.2953, -0.216 -0.8044 0.2953, -0.2079 -0.8263 0.2953, -0.2461 -0.7954 0.2953, -0.2192 -0.7954 0.2953, -0.2313 -0.7621 0.2953, -0.2326 -0.7565 0.2953, -0.2319 -0.7599 0.2953, -0.2328 -0.7565 0.2953, -0.2341 -0.7621 0.2953, -0.2334 -0.7597 0.2953
            ]
        }
        coordIndex [
            0,1,2,-1,2,1,3,-1,4,5,0,-1,0,5,6,-1,0,6,1,-1,1,6,7,-1,4,8,5,-1,5,8,9,-1,5,9,10,-1,10,9,11,-1,10,11,12,-1,12,13,10,-1,10,13,2,-1,10,2,14,-1,14,2,3,-1,14,3,15,-1,10,14,16,-1,16,14,17,-1,5,10,18,-1,18,10,16,-1,6,5,19,-1,19,5,18,-1,7,6,20,-1,20,6,19,-1,1,7,21,-1,21,7,20,-1,3,1,22,-1,22,1,21,-1,15,3,23,-1,23,3,22,-1,14,15,17,-1,17,15,23,-1,0,2,24,-1,24,2,25,-1,2,13,25,-1,25,13,26,-1,11,27,28,-1,11,28,12,-1,12,28,26,-1,12,26,13,-1,11,9,27,-1,27,9,29,-1,4,30,31,-1,4,31,8,-1,8,31,29,-1,8,29,9,-1,4,0,30,-1,30,0,24,-1,
        ]
    }
}
Shape{
    appearance Appearance {
        material  Material 	{
            diffuseColor 0.25098039215686274 0.25098039215686274 0.25098039215686274
            specularColor 0.12549019607843137 0.12549019607843137 0.12549019607843137
            ambientIntensity 0.251
            transparency 0.0
            shininess 0.5
        }
    }
    geometry IndexedFaceSet {
        ccw TRUE
        solid FALSE
        coord DEF co Coordinate {
            point [
                -0.2326 -0.7565 0.2953, -0.2328 -0.7565 0.2953, -0.2319 -0.7599 0.2953, -0.2334 -0.7597 0.2953, -0.2313 -0.7621 0.2953, -0.2341 -0.7621 0.2953, -0.2192 -0.7954 0.2953, -0.2461 -0.7954 0.2953
            ]
        }
        coordIndex [
            0,1,2,-1,2,1,3,-1,2,3,4,-1,4,3,5,-1,4,5,6,-1,6,5,7,-1,
        ]
    }
}
Shape{
    appearance Appearance {
        material  Material 	{
            diffuseColor 1.0 1.0 1.0
            specularColor 0.5019607843137255 0.5019607843137255 0.5019607843137255
            ambientIntensity 1.0
            transparency 0.0
            shininess 0.5
        }
    }
    geometry IndexedFaceSet {
        ccw TRUE
        solid FALSE
        coord DEF co Coordinate {
            point [
                -0.9717 -0.8376 0.2992, -0.9632 -0.8481 0.2992, -0.9768 -0.7873 0.2992, -0.9866 -0.6883 0.2992, -0.9739 -0.6816 0.2992, -0.9771 -0.6467 0.2992, -0.8664 -0.8072 0.2992, -0.8664 -0.8016 0.2992, -0.9147 -0.7876 0.2992, -0.92 -0.7859 0.2992, -0.9546 -0.6439 0.2992, -0.9061 -0.7945 0.2992, -0.9035 -0.799 0.2992, -0.8667 -0.813 0.2992, -0.7867 -0.7594 0.2992, -0.8043 -0.7293 0.2992, -0.8806 -0.7691 0.2992, -0.9239 -0.7856 0.2992, -0.9293 -0.7863 0.2992, -0.9368 -0.7514 0.2992, -0.9342 -0.7882 0.2992, -0.9494 -0.7562 0.2992, -0.9387 -0.7913 0.2992, -0.9611 -0.7643 0.2992, -0.9415 -0.7943 0.2992, -0.9705 -0.775 0.2992, -0.9443 -0.7991 0.2992, -0.9458 -0.8045 0.2992, -0.9026 -0.7536 0.2992, -0.9163 -0.7502 0.2992, -0.9233 -0.7497 0.2992, -0.9415 -0.645 0.2992, -0.9239 -0.6866 0.2992, -0.9166 -0.6708 0.2992, -0.9892 -0.7797 0.2992, -0.9847 -0.8233 0.2992, -0.9774 -0.8255 0.2992, -0.9099 -0.7905 0.2992, -0.9388 -0.8242 0.2992, -0.9343 -0.8274 0.2992, -0.9521 -0.8565 0.2992, -0.929 -0.8294 0.2992, -0.9298 -0.6314 0.2992, -0.9043 -0.6552 0.2992, -0.9165 -0.6199 0.2992, -0.8888 -0.6431 0.2992, -0.9026 -0.6114 0.2992, -0.9598 -0.6783 0.2992, -0.954 -0.678 0.2992, -0.9481 -0.6442 0.2992, -0.9409 -0.6796 0.2992, -0.9281 -0.6843 0.2992, -0.8905 -0.7601 0.2992, -0.7679 -0.7031 0.2992, -0.7633 -0.7031 0.2992, -0.74 -0.6723 0.2992, -0.7525 -0.7044 0.2992, -0.7352 -0.674 0.2992, -0.7426 -0.7082 0.2992, -0.7184 -0.6829 0.2992, -0.7338 -0.7144 0.2992, -0.7034 -0.6963 0.2992, -0.7271 -0.7218 0.2992, -0.6922 -0.7128 0.2992, -0.7218 -0.7316 0.2992, -0.6857 -0.7303 0.2992, -0.7192 -0.7426 0.2992, -0.6836 -0.7469 0.2992, -0.7189 -0.7475 0.2992, -0.6837 -0.7509 0.2992, -0.7203 -0.7585 0.2992, -0.7919 -0.8264 0.2992, -0.7901 -0.8266 0.2992, -0.7855 -0.7919 0.2992, -0.8764 -0.6012 0.2992, -0.8703 -0.6351 0.2992, -0.8481 -0.5977 0.2992, -0.7707 -0.6273 0.2992, -0.7877 -0.6589 0.2992, -0.7521 -0.6489 0.2992, -0.7763 -0.6755 0.2992, -0.7693 -0.6946 0.2992, -1.0093 -0.7212 0.2992, -1.0467 -0.7308 0.2992, -1.011 -0.7349 0.2992, -1.0468 -0.7361 0.2992, -1.0103 -0.7436 0.2992, -1.044 -0.7586 0.2992, -1.0063 -0.7575 0.2992, -1.0358 -0.7797 0.2992, -0.9994 -0.7692 0.2992, -1.0229 -0.7981 0.2992, -1.0052 -0.8132 0.2992, -0.9424 -0.8201 0.2992, -0.9448 -0.8153 0.2992, -0.946 -0.81 0.2992, -0.7599 -0.7919 0.2992, -0.7565 -0.8266 0.2992, -0.7498 -0.7899 0.2992, -0.7397 -0.8233 0.2992, -0.7397 -0.7853 0.2992, -0.7221 -0.8153 0.2992, -0.7313 -0.7785 0.2992, -0.707 -0.8034 0.2992, -0.7305 -0.7776 0.2992, -0.7047 -0.801 0.2992, -0.7242 -0.7687 0.2992, -0.6945 -0.7873 0.2992, -0.6869 -0.7695 0.2992, -0.9982 -0.6549 0.2992, -1.0163 -0.6676 0.2992, -0.9965 -0.6972 0.2992, -1.0201 -0.6712 0.2992, -1.0044 -0.7085 0.2992, -1.0338 -0.6889 0.2992, -1.0429 -0.7094 0.2992, -0.9019 -0.8042 0.2992, -0.9017 -0.8097 0.2992, -0.87 -0.8271 0.2992, -0.9029 -0.8152 0.2992, -0.8767 -0.8398 0.2992, -0.9055 -0.8202 0.2992, -0.8855 -0.8497 0.2992, -0.9091 -0.8244 0.2992, -0.8969 -0.8576 0.2992, -0.9134 -0.8274 0.2992, -0.9096 -0.8625 0.2992, -0.9184 -0.8293 0.2992, -0.9233 -0.8642 0.2992, -0.9239 -0.83 0.2992, -0.9255 -0.8641 0.2992, -0.939 -0.862 0.2992, -0.8514 -0.632 0.2992, -0.8476 -0.6319 0.2992, -0.8247 -0.6002 0.2992, -0.8306 -0.6337 0.2992, -0.7961 -0.6103 0.2992, -0.8126 -0.64 0.2992, -0.7963 -0.6506 0.2992, -0.8065 -0.8071 0.2992, -0.8066 -0.809 0.2992, -0.7884 -0.7913 0.2992, -0.8062 -0.8128 0.2992, -0.8048 -0.8166 0.2992, -0.8024 -0.8203 0.2992, -0.7996 -0.8229 0.2992, -0.7867 -0.7917 0.2992, -0.7957 -0.8252 0.2992, -0.7889 -0.7913 0.2992, -0.7928 -0.7917 0.2992, -0.7968 -0.7932 0.2992, -0.8003 -0.7955 0.2992, -0.8033 -0.7988 0.2992, -0.8054 -0.8027 0.2992, -0.7009 -0.7 0.2953, -0.6922 -0.7128 0.2953, -0.6883 -0.7235 0.2953, -0.6857 -0.7303 0.2953, -0.6836 -0.7469 0.2953, -0.7034 -0.6963 0.2953, -0.7184 -0.6829 0.2953, -0.7352 -0.674 0.2953, -0.74 -0.6723 0.2953, -0.7521 -0.6489 0.2953, -0.7707 -0.6273 0.2953, -0.7838 -0.6186 0.2953, -0.7961 -0.6103 0.2953, -0.8247 -0.6002 0.2953, -0.8481 -0.5977 0.2953, -0.8764 -0.6012 0.2953, -0.9026 -0.6114 0.2953, -0.9142 -0.6186 0.2953, -0.9165 -0.6199 0.2953, -0.9298 -0.6314 0.2953, -0.9415 -0.645 0.2953, -0.9481 -0.6442 0.2953, -0.9546 -0.6439 0.2953, -0.9982 -0.6549 0.2953, -0.9771 -0.6467 0.2953, -1.0098 -0.6631 0.2953, -1.0163 -0.6676 0.2953, -1.0201 -0.6712 0.2953, -1.0338 -0.6889 0.2953, -1.0387 -0.7 0.2953, -1.0429 -0.7094 0.2953, -1.0454 -0.7235 0.2953, -1.0467 -0.7308 0.2953, -1.0468 -0.7361 0.2953, -1.044 -0.7586 0.2953, -1.0358 -0.7797 0.2953, -1.0229 -0.7981 0.2953, -1.0098 -0.8093 0.2953, -1.0052 -0.8132 0.2953, -0.9847 -0.8233 0.2953, -0.9774 -0.8255 0.2953, -0.9767 -0.827 0.2953, -0.9717 -0.8376 0.2953, -0.9632 -0.8481 0.2953, -0.9521 -0.8565 0.2953, -0.9468 -0.8587 0.2953, -0.939 -0.862 0.2953, -0.9255 -0.8641 0.2953, -0.9233 -0.8642 0.2953, -0.8664 -0.8072 0.2953, -0.9096 -0.8625 0.2953, -0.8997 -0.8587 0.2953, -0.8969 -0.8576 0.2953, -0.8855 -0.8497 0.2953, -0.8767 -0.8398 0.2953, -0.87 -0.8271 0.2953, -0.8699 -0.827 0.2953, -0.8667 -0.813 0.2953, -0.8664 -0.8016 0.2953, -0.7867 -0.7594 0.2953, -0.8043 -0.7293 0.2953, -0.8806 -0.7691 0.2953, -0.8905 -0.7601 0.2953, -0.9026 -0.7536 0.2953, -0.9163 -0.7502 0.2953, -0.9233 -0.7497 0.2953, -0.9368 -0.7514 0.2953, -0.9494 -0.7562 0.2953, -0.9611 -0.7643 0.2953, -0.9705 -0.775 0.2953, -0.9768 -0.7873 0.2953, -1.011 -0.7349 0.2953, -0.9892 -0.7797 0.2953, -0.9994 -0.7692 0.2953, -1.0063 -0.7575 0.2953, -1.0098 -0.7452 0.2953, -1.0103 -0.7436 0.2953, -1.0098 -0.7257 0.2953, -1.0096 -0.7235 0.2953, -1.0093 -0.7212 0.2953, -1.0044 -0.7085 0.2953, -0.9985 -0.7 0.2953, -0.9965 -0.6972 0.2953, -0.9866 -0.6883 0.2953, -0.9739 -0.6816 0.2953, -0.9598 -0.6783 0.2953, -0.954 -0.678 0.2953, -0.9409 -0.6796 0.2953, -0.9281 -0.6843 0.2953, -0.9239 -0.6866 0.2953, -0.9166 -0.6708 0.2953, -0.9043 -0.6552 0.2953, -0.8888 -0.6431 0.2953, -0.8703 -0.6351 0.2953, -0.8514 -0.632 0.2953, -0.8476 -0.6319 0.2953, -0.8306 -0.6337 0.2953, -0.8126 -0.64 0.2953, -0.7963 -0.6506 0.2953, -0.7877 -0.6589 0.2953, -0.7763 -0.6755 0.2953, -0.7693 -0.6946 0.2953, -0.7684 -0.7 0.2953, -0.7679 -0.7031 0.2953, -0.7633 -0.7031 0.2953, -0.7525 -0.7044 0.2953, -0.7426 -0.7082 0.2953, -0.7338 -0.7144 0.2953, -0.7271 -0.7218 0.2953, -0.7262 -0.7235 0.2953, -0.7218 -0.7316 0.2953, -0.7192 -0.7426 0.2953, -0.7189 -0.7475 0.2953, -0.7203 -0.7585 0.2953, -0.7242 -0.7687 0.2953, -0.7305 -0.7776 0.2953, -0.7313 -0.7785 0.2953, -0.7397 -0.7853 0.2953, -0.7498 -0.7899 0.2953, -0.7599 -0.7919 0.2953, -0.7855 -0.7919 0.2953, -0.7867 -0.7917 0.2953, -0.7884 -0.7913 0.2953, -0.7889 -0.7913 0.2953, -0.7928 -0.7917 0.2953, -0.7968 -0.7932 0.2953, -0.8003 -0.7955 0.2953, -0.8033 -0.7988 0.2953, -0.8054 -0.8027 0.2953, -0.8065 -0.8071 0.2953, -0.8066 -0.809 0.2953, -0.8062 -0.8128 0.2953, -0.8048 -0.8166 0.2953, -0.8024 -0.8203 0.2953, -0.7996 -0.8229 0.2953, -0.7957 -0.8252 0.2953, -0.7919 -0.8264 0.2953, -0.7901 -0.8266 0.2953, -0.7565 -0.8266 0.2953, -0.7397 -0.8233 0.2953, -0.7221 -0.8153 0.2953, -0.707 -0.8034 0.2953, -0.7047 -0.801 0.2953, -0.6945 -0.7873 0.2953, -0.6869 -0.7695 0.2953, -0.6837 -0.7509 0.2953, -0.9239 -0.7856 0.2953, -0.92 -0.7859 0.2953, -0.9147 -0.7876 0.2953, -0.9099 -0.7905 0.2953, -0.9061 -0.7945 0.2953, -0.9035 -0.799 0.2953, -0.9019 -0.8042 0.2953, -0.9017 -0.8097 0.2953, -0.9029 -0.8152 0.2953, -0.9055 -0.8202 0.2953, -0.9091 -0.8244 0.2953, -0.9134 -0.8274 0.2953, -0.9184 -0.8293 0.2953, -0.9239 -0.83 0.2953, -0.929 -0.8294 0.2953, -0.9343 -0.8274 0.2953, -0.9388 -0.8242 0.2953, -0.9424 -0.8201 0.2953, -0.9448 -0.8153 0.2953, -0.946 -0.81 0.2953, -0.9458 -0.8045 0.2953, -0.9443 -0.7991 0.2953, -0.9415 -0.7943 0.2953, -0.9387 -0.7913 0.2953, -0.9342 -0.7882 0.2953, -0.9293 -0.7863 0.2953
            ]
        }
        coordIndex [
            0,1,2,-1,3,4,5,-1,6,7,8,-1,8,7,9,-1,5,4,10,-1,11,12,13,-1,14,15,7,-1,7,15,16,-1,7,16,9,-1,9,16,17,-1,18,19,20,-1,20,19,21,-1,20,21,22,-1,22,21,23,-1,22,23,24,-1,24,23,25,-1,24,25,26,-1,26,25,2,-1,26,2,27,-1,28,29,18,-1,18,29,30,-1,18,30,19,-1,31,32,33,-1,34,35,2,-1,2,35,36,-1,2,36,0,-1,6,8,13,-1,13,8,37,-1,13,37,11,-1,38,1,39,-1,39,1,40,-1,39,40,41,-1,31,33,42,-1,42,33,43,-1,42,43,44,-1,44,43,45,-1,44,45,46,-1,4,47,10,-1,10,47,48,-1,10,48,49,-1,49,48,50,-1,49,50,31,-1,31,50,51,-1,31,51,32,-1,17,16,18,-1,18,16,52,-1,18,52,28,-1,53,54,55,-1,55,54,56,-1,55,56,57,-1,57,56,58,-1,57,58,59,-1,59,58,60,-1,59,60,61,-1,61,60,62,-1,61,62,63,-1,63,62,64,-1,63,64,65,-1,65,64,66,-1,65,66,67,-1,67,66,68,-1,67,68,69,-1,69,68,70,-1,71,72,73,-1,46,45,74,-1,74,45,75,-1,74,75,76,-1,77,78,79,-1,79,78,80,-1,79,80,55,-1,55,80,81,-1,55,81,53,-1,82,83,84,-1,84,83,85,-1,84,85,86,-1,86,85,87,-1,86,87,88,-1,88,87,89,-1,88,89,90,-1,90,89,91,-1,90,91,34,-1,34,91,92,-1,34,92,35,-1,38,93,1,-1,1,93,94,-1,1,94,2,-1,2,94,95,-1,2,95,27,-1,73,72,96,-1,96,72,97,-1,96,97,98,-1,98,97,99,-1,98,99,100,-1,100,99,101,-1,100,101,102,-1,102,101,103,-1,102,103,104,-1,104,103,105,-1,104,105,106,-1,106,105,107,-1,106,107,70,-1,70,107,108,-1,70,108,69,-1,5,109,3,-1,3,109,110,-1,3,110,111,-1,111,110,112,-1,111,112,113,-1,113,112,114,-1,113,114,82,-1,82,114,115,-1,82,115,83,-1,12,116,13,-1,13,116,117,-1,13,117,118,-1,118,117,119,-1,118,119,120,-1,120,119,121,-1,120,121,122,-1,122,121,123,-1,122,123,124,-1,124,123,125,-1,124,125,126,-1,126,125,127,-1,126,127,128,-1,128,127,129,-1,128,129,130,-1,130,129,41,-1,130,41,131,-1,131,41,40,-1,75,132,76,-1,76,132,133,-1,76,133,134,-1,134,133,135,-1,134,135,136,-1,136,135,137,-1,136,137,77,-1,77,137,138,-1,77,138,78,-1,139,140,141,-1,141,140,142,-1,142,143,141,-1,141,143,144,-1,141,144,145,-1,73,146,71,-1,71,146,141,-1,71,141,147,-1,147,141,145,-1,141,148,139,-1,139,148,149,-1,139,149,150,-1,150,151,139,-1,139,151,152,-1,139,152,153,-1,154,61,155,-1,155,61,63,-1,155,63,156,-1,156,63,65,-1,156,65,157,-1,157,65,67,-1,157,67,158,-1,154,159,61,-1,61,159,160,-1,61,160,59,-1,59,160,161,-1,59,161,57,-1,57,161,162,-1,57,162,55,-1,55,162,163,-1,55,163,79,-1,79,163,164,-1,79,164,77,-1,136,77,165,-1,165,77,164,-1,165,166,136,-1,136,166,167,-1,136,167,134,-1,134,167,168,-1,134,168,76,-1,76,168,169,-1,76,169,74,-1,74,169,170,-1,74,170,46,-1,46,170,44,-1,44,170,171,-1,44,171,172,-1,44,172,173,-1,44,173,42,-1,42,173,174,-1,42,174,31,-1,31,174,175,-1,31,175,49,-1,49,175,176,-1,49,176,10,-1,177,5,178,-1,178,5,10,-1,178,10,176,-1,179,110,177,-1,177,110,109,-1,177,109,5,-1,179,180,110,-1,110,180,181,-1,110,181,112,-1,115,114,182,-1,182,114,112,-1,182,112,181,-1,182,183,115,-1,115,183,184,-1,115,184,83,-1,83,184,185,-1,185,186,83,-1,83,186,187,-1,83,187,85,-1,85,187,188,-1,85,188,87,-1,87,188,189,-1,87,189,89,-1,89,189,190,-1,89,190,91,-1,91,190,92,-1,92,190,191,-1,191,192,92,-1,92,192,193,-1,92,193,35,-1,35,193,194,-1,35,194,36,-1,36,194,195,-1,36,195,0,-1,195,196,0,-1,0,196,197,-1,0,197,1,-1,1,197,198,-1,1,198,40,-1,40,198,199,-1,40,199,131,-1,199,200,131,-1,131,200,201,-1,131,201,130,-1,130,201,202,-1,130,202,128,-1,203,6,13,-1,128,202,204,-1,205,124,204,-1,204,124,126,-1,204,126,128,-1,205,206,124,-1,124,206,207,-1,124,207,122,-1,122,207,208,-1,122,208,120,-1,120,208,209,-1,120,209,118,-1,118,209,210,-1,118,210,13,-1,13,210,211,-1,13,211,203,-1,7,6,212,-1,212,6,203,-1,14,7,213,-1,213,7,212,-1,15,14,214,-1,214,14,213,-1,16,15,215,-1,215,15,214,-1,16,215,216,-1,16,216,52,-1,52,216,217,-1,52,217,28,-1,28,217,218,-1,28,218,29,-1,29,218,219,-1,29,219,30,-1,30,219,220,-1,30,220,19,-1,19,220,221,-1,19,221,21,-1,21,221,222,-1,21,222,23,-1,23,222,223,-1,23,223,25,-1,25,223,224,-1,25,224,2,-1,225,84,86,-1,2,224,226,-1,2,226,34,-1,34,226,227,-1,34,227,90,-1,90,227,228,-1,90,228,88,-1,88,228,229,-1,88,229,86,-1,86,229,230,-1,86,230,225,-1,84,225,82,-1,82,225,231,-1,231,232,82,-1,82,232,233,-1,82,233,234,-1,235,111,234,-1,234,111,113,-1,234,113,82,-1,235,236,111,-1,111,236,237,-1,111,237,3,-1,3,237,238,-1,3,238,4,-1,4,238,239,-1,4,239,47,-1,47,239,240,-1,47,240,48,-1,48,240,241,-1,48,241,50,-1,50,241,242,-1,50,242,51,-1,51,242,243,-1,51,243,32,-1,32,243,244,-1,32,244,33,-1,33,244,245,-1,33,245,43,-1,43,245,246,-1,43,246,45,-1,45,246,247,-1,45,247,75,-1,75,247,248,-1,75,248,132,-1,132,248,249,-1,132,249,133,-1,133,249,250,-1,133,250,135,-1,135,250,251,-1,135,251,137,-1,137,251,252,-1,137,252,138,-1,138,252,253,-1,138,253,78,-1,78,253,254,-1,78,254,80,-1,80,254,255,-1,80,255,81,-1,81,255,53,-1,53,255,256,-1,53,256,257,-1,54,53,258,-1,258,53,257,-1,54,258,259,-1,54,259,56,-1,56,259,260,-1,56,260,58,-1,58,260,261,-1,58,261,60,-1,60,261,262,-1,60,262,62,-1,62,262,263,-1,62,263,64,-1,263,264,64,-1,64,264,265,-1,64,265,66,-1,66,265,266,-1,66,266,68,-1,68,266,267,-1,68,267,70,-1,70,267,268,-1,70,268,106,-1,106,268,269,-1,106,269,104,-1,104,269,270,-1,104,270,102,-1,102,270,271,-1,102,271,100,-1,100,271,272,-1,100,272,98,-1,98,272,273,-1,98,273,96,-1,73,96,274,-1,274,96,273,-1,73,274,275,-1,73,275,146,-1,146,275,276,-1,146,276,141,-1,141,276,277,-1,141,277,148,-1,148,277,278,-1,148,278,149,-1,149,278,279,-1,149,279,150,-1,150,279,280,-1,150,280,151,-1,151,280,281,-1,151,281,152,-1,152,281,282,-1,152,282,153,-1,153,282,283,-1,153,283,139,-1,139,283,284,-1,139,284,140,-1,140,284,285,-1,140,285,142,-1,142,285,286,-1,142,286,143,-1,143,286,287,-1,143,287,144,-1,144,287,288,-1,144,288,145,-1,145,288,289,-1,145,289,147,-1,147,289,290,-1,147,290,71,-1,71,290,291,-1,71,291,72,-1,97,72,292,-1,292,72,291,-1,97,292,293,-1,97,293,99,-1,99,293,294,-1,99,294,101,-1,101,294,295,-1,101,295,103,-1,103,295,296,-1,103,296,105,-1,105,296,297,-1,105,297,107,-1,107,297,298,-1,107,298,108,-1,108,298,299,-1,108,299,69,-1,69,299,158,-1,69,158,67,-1,17,300,301,-1,17,301,9,-1,9,301,302,-1,9,302,8,-1,8,302,303,-1,8,303,37,-1,37,303,304,-1,37,304,11,-1,11,304,305,-1,11,305,12,-1,12,305,306,-1,12,306,116,-1,116,306,307,-1,116,307,117,-1,117,307,308,-1,117,308,119,-1,119,308,309,-1,119,309,121,-1,121,309,310,-1,121,310,123,-1,123,310,311,-1,123,311,125,-1,125,311,312,-1,125,312,127,-1,127,312,313,-1,127,313,129,-1,129,313,314,-1,129,314,41,-1,41,314,315,-1,41,315,39,-1,39,315,316,-1,39,316,38,-1,38,316,317,-1,38,317,93,-1,93,317,318,-1,93,318,94,-1,94,318,319,-1,94,319,95,-1,95,319,320,-1,95,320,27,-1,27,320,321,-1,27,321,26,-1,26,321,322,-1,26,322,24,-1,24,322,323,-1,24,323,22,-1,22,323,324,-1,22,324,20,-1,20,324,325,-1,20,325,18,-1,18,325,300,-1,18,300,17,-1,
        ]
    }
}
Shape{
    appearance Appearance {
        material  Material 	{
            diffuseColor 0.25098039215686274 0.25098039215686274 0.25098039215686274
            specularColor 0.12549019607843137 0.12549019607843137 0.12549019607843137
            ambientIntensity 0.251
            transparency 0.0
            shininess 0.5
        }
    }
    geometry IndexedFaceSet {
        ccw TRUE
        solid FALSE
        coord DEF co Coordinate {
            point [
                -0.9239 -0.83 0.2953, -0.9387 -0.7913 0.2953, -0.9415 -0.7943 0.2953, -0.9239 -0.7856 0.2953, -0.92 -0.7859 0.2953, -0.9184 -0.8293 0.2953, -0.9293 -0.7863 0.2953, -0.9342 -0.7882 0.2953, -0.9091 -0.8244 0.2953, -0.9061 -0.7945 0.2953, -0.9099 -0.7905 0.2953, -0.9448 -0.8153 0.2953, -0.9424 -0.8201 0.2953, -0.9388 -0.8242 0.2953, -0.9134 -0.8274 0.2953, -0.9147 -0.7876 0.2953, -0.9443 -0.7991 0.2953, -0.9458 -0.8045 0.2953, -0.946 -0.81 0.2953, -0.9343 -0.8274 0.2953, -0.929 -0.8294 0.2953, -0.9029 -0.8152 0.2953, -0.9017 -0.8097 0.2953, -0.9055 -0.8202 0.2953, -0.9019 -0.8042 0.2953, -0.9035 -0.799 0.2953
            ]
        }
        coordIndex [
            0,1,2,-1,3,0,4,-1,4,0,5,-1,3,6,0,-1,0,6,7,-1,0,7,1,-1,8,9,10,-1,11,12,2,-1,2,12,13,-1,5,14,4,-1,4,14,8,-1,4,8,15,-1,15,8,10,-1,16,17,2,-1,2,17,18,-1,2,18,11,-1,13,19,2,-1,2,19,20,-1,2,20,0,-1,21,22,23,-1,23,22,24,-1,23,24,8,-1,8,24,25,-1,8,25,9,-1,
        ]
    }
}